<svg width="1081" height="322" viewBox="0 0 1081 322" fill="none" xmlns="http://www.w3.org/2000/svg">
<rect x="1" y="1" width="1079" height="320" rx="24" fill="white"/>
<rect x="1" y="1" width="1079" height="320" rx="24" stroke="#0095FF" stroke-linecap="round" stroke-dasharray="10 10"/>
<mask id="mask0_974_35149" style="mask-type:alpha" maskUnits="userSpaceOnUse" x="516" y="95" width="49" height="49">
<rect x="516.5" y="95.5" width="48" height="48" fill="#D9D9D9"/>
</mask>
<g mask="url(#mask0_974_35149)">
<path d="M538.5 127.5V111.2L533.3 116.4L530.5 113.5L540.5 103.5L550.5 113.5L547.7 116.4L542.5 111.2V127.5H538.5ZM528.5 135.5C527.4 135.5 526.458 135.108 525.675 134.325C524.892 133.542 524.5 132.6 524.5 131.5V125.5H528.5V131.5H552.5V125.5H556.5V131.5C556.5 132.6 556.108 133.542 555.325 134.325C554.542 135.108 553.6 135.5 552.5 135.5H528.5Z" fill="#535353"/>
</g>
<path d="M322.077 175.6C323.557 175.6 324.85 175.887 325.957 176.46C327.077 177.02 327.937 177.833 328.537 178.9C329.15 179.953 329.457 181.187 329.457 182.6C329.457 184.013 329.15 185.24 328.537 186.28C327.937 187.32 327.077 188.12 325.957 188.68C324.85 189.227 323.557 189.5 322.077 189.5H317.537V175.6H322.077ZM322.077 187.64C323.704 187.64 324.95 187.2 325.817 186.32C326.684 185.44 327.117 184.2 327.117 182.6C327.117 180.987 326.684 179.727 325.817 178.82C324.95 177.913 323.704 177.46 322.077 177.46H319.817V187.64H322.077ZM333.997 180.08C334.33 179.52 334.77 179.087 335.317 178.78C335.877 178.46 336.537 178.3 337.297 178.3V180.66H336.717C335.823 180.66 335.143 180.887 334.677 181.34C334.223 181.793 333.997 182.58 333.997 183.7V189.5H331.717V178.48H333.997V180.08ZM338.633 183.94C338.633 182.833 338.859 181.853 339.313 181C339.779 180.147 340.406 179.487 341.193 179.02C341.993 178.54 342.873 178.3 343.833 178.3C344.699 178.3 345.453 178.473 346.093 178.82C346.746 179.153 347.266 179.573 347.653 180.08V178.48H349.953V189.5H347.653V187.86C347.266 188.38 346.739 188.813 346.073 189.16C345.406 189.507 344.646 189.68 343.793 189.68C342.846 189.68 341.979 189.44 341.193 188.96C340.406 188.467 339.779 187.787 339.313 186.92C338.859 186.04 338.633 185.047 338.633 183.94ZM347.653 183.98C347.653 183.22 347.493 182.56 347.173 182C346.866 181.44 346.459 181.013 345.953 180.72C345.446 180.427 344.899 180.28 344.313 180.28C343.726 180.28 343.179 180.427 342.673 180.72C342.166 181 341.753 181.42 341.433 181.98C341.126 182.527 340.973 183.18 340.973 183.94C340.973 184.7 341.126 185.367 341.433 185.94C341.753 186.513 342.166 186.953 342.673 187.26C343.193 187.553 343.739 187.7 344.313 187.7C344.899 187.7 345.446 187.553 345.953 187.26C346.459 186.967 346.866 186.54 347.173 185.98C347.493 185.407 347.653 184.74 347.653 183.98ZM357.387 178.3C358.241 178.3 358.994 178.473 359.647 178.82C360.314 179.153 360.834 179.573 361.207 180.08V178.48H363.507V189.68C363.507 190.693 363.294 191.593 362.867 192.38C362.441 193.18 361.821 193.807 361.007 194.26C360.207 194.713 359.247 194.94 358.127 194.94C356.634 194.94 355.394 194.587 354.407 193.88C353.421 193.187 352.861 192.24 352.727 191.04H354.987C355.161 191.613 355.527 192.073 356.087 192.42C356.661 192.78 357.341 192.96 358.127 192.96C359.047 192.96 359.787 192.68 360.347 192.12C360.921 191.56 361.207 190.747 361.207 189.68V187.84C360.821 188.36 360.294 188.8 359.627 189.16C358.974 189.507 358.227 189.68 357.387 189.68C356.427 189.68 355.547 189.44 354.747 188.96C353.961 188.467 353.334 187.787 352.867 186.92C352.414 186.04 352.187 185.047 352.187 183.94C352.187 182.833 352.414 181.853 352.867 181C353.334 180.147 353.961 179.487 354.747 179.02C355.547 178.54 356.427 178.3 357.387 178.3ZM361.207 183.98C361.207 183.22 361.047 182.56 360.727 182C360.421 181.44 360.014 181.013 359.507 180.72C359.001 180.427 358.454 180.28 357.867 180.28C357.281 180.28 356.734 180.427 356.227 180.72C355.721 181 355.307 181.42 354.987 181.98C354.681 182.527 354.527 183.18 354.527 183.94C354.527 184.7 354.681 185.367 354.987 185.94C355.307 186.513 355.721 186.953 356.227 187.26C356.747 187.553 357.294 187.7 357.867 187.7C358.454 187.7 359.001 187.553 359.507 187.26C360.014 186.967 360.421 186.54 360.727 185.98C361.047 185.407 361.207 184.74 361.207 183.98ZM382.437 189.5L380.717 187.78C380.051 188.447 379.324 188.947 378.537 189.28C377.751 189.6 376.871 189.76 375.897 189.76C374.911 189.76 374.037 189.587 373.277 189.24C372.517 188.893 371.931 188.4 371.517 187.76C371.104 187.107 370.897 186.353 370.897 185.5C370.897 184.54 371.171 183.687 371.717 182.94C372.264 182.18 373.077 181.58 374.157 181.14C373.771 180.673 373.497 180.24 373.337 179.84C373.177 179.427 373.097 178.973 373.097 178.48C373.097 177.867 373.251 177.32 373.557 176.84C373.877 176.36 374.331 175.98 374.917 175.7C375.504 175.42 376.184 175.28 376.957 175.28C377.744 175.28 378.411 175.433 378.957 175.74C379.517 176.033 379.931 176.44 380.197 176.96C380.477 177.48 380.591 178.06 380.537 178.7H378.257C378.271 178.207 378.151 177.827 377.897 177.56C377.644 177.28 377.297 177.14 376.857 177.14C376.417 177.14 376.057 177.273 375.777 177.54C375.511 177.793 375.377 178.107 375.377 178.48C375.377 178.84 375.477 179.2 375.677 179.56C375.891 179.907 376.257 180.36 376.777 180.92L380.457 184.58L381.877 182.24H384.337L382.537 185.32L382.037 186.14L385.417 189.5H382.437ZM375.897 187.82C377.151 187.82 378.257 187.307 379.217 186.28L375.537 182.58C373.964 183.207 373.177 184.153 373.177 185.42C373.177 186.1 373.431 186.673 373.937 187.14C374.444 187.593 375.097 187.82 375.897 187.82ZM396.647 175.6C398.127 175.6 399.421 175.887 400.527 176.46C401.647 177.02 402.507 177.833 403.107 178.9C403.721 179.953 404.027 181.187 404.027 182.6C404.027 184.013 403.721 185.24 403.107 186.28C402.507 187.32 401.647 188.12 400.527 188.68C399.421 189.227 398.127 189.5 396.647 189.5H392.107V175.6H396.647ZM396.647 187.64C398.274 187.64 399.521 187.2 400.387 186.32C401.254 185.44 401.687 184.2 401.687 182.6C401.687 180.987 401.254 179.727 400.387 178.82C399.521 177.913 398.274 177.46 396.647 177.46H394.387V187.64H396.647ZM408.567 180.08C408.9 179.52 409.34 179.087 409.887 178.78C410.447 178.46 411.107 178.3 411.867 178.3V180.66H411.287C410.394 180.66 409.714 180.887 409.247 181.34C408.794 181.793 408.567 182.58 408.567 183.7V189.5H406.287V178.48H408.567V180.08ZM418.743 189.68C417.703 189.68 416.763 189.447 415.923 188.98C415.083 188.5 414.423 187.833 413.943 186.98C413.463 186.113 413.223 185.113 413.223 183.98C413.223 182.86 413.47 181.867 413.963 181C414.456 180.133 415.13 179.467 415.983 179C416.836 178.533 417.79 178.3 418.843 178.3C419.896 178.3 420.85 178.533 421.703 179C422.556 179.467 423.23 180.133 423.723 181C424.216 181.867 424.463 182.86 424.463 183.98C424.463 185.1 424.21 186.093 423.703 186.96C423.196 187.827 422.503 188.5 421.623 188.98C420.756 189.447 419.796 189.68 418.743 189.68ZM418.743 187.7C419.33 187.7 419.876 187.56 420.383 187.28C420.903 187 421.323 186.58 421.643 186.02C421.963 185.46 422.123 184.78 422.123 183.98C422.123 183.18 421.97 182.507 421.663 181.96C421.356 181.4 420.95 180.98 420.443 180.7C419.936 180.42 419.39 180.28 418.803 180.28C418.216 180.28 417.67 180.42 417.163 180.7C416.67 180.98 416.276 181.4 415.983 181.96C415.69 182.507 415.543 183.18 415.543 183.98C415.543 185.167 415.843 186.087 416.443 186.74C417.056 187.38 417.823 187.7 418.743 187.7ZM428.997 180.1C429.383 179.593 429.91 179.167 430.577 178.82C431.243 178.473 431.997 178.3 432.837 178.3C433.797 178.3 434.67 178.54 435.457 179.02C436.257 179.487 436.883 180.147 437.337 181C437.79 181.853 438.017 182.833 438.017 183.94C438.017 185.047 437.79 186.04 437.337 186.92C436.883 187.787 436.257 188.467 435.457 188.96C434.67 189.44 433.797 189.68 432.837 189.68C431.997 189.68 431.25 189.513 430.597 189.18C429.943 188.833 429.41 188.407 428.997 187.9V194.74H426.717V178.48H428.997V180.1ZM435.697 183.94C435.697 183.18 435.537 182.527 435.217 181.98C434.91 181.42 434.497 181 433.977 180.72C433.47 180.427 432.923 180.28 432.337 180.28C431.763 180.28 431.217 180.427 430.697 180.72C430.19 181.013 429.777 181.44 429.457 182C429.15 182.56 428.997 183.22 428.997 183.98C428.997 184.74 429.15 185.407 429.457 185.98C429.777 186.54 430.19 186.967 430.697 187.26C431.217 187.553 431.763 187.7 432.337 187.7C432.923 187.7 433.47 187.553 433.977 187.26C434.497 186.953 434.91 186.513 435.217 185.94C435.537 185.367 435.697 184.7 435.697 183.94ZM450.247 189.68C449.207 189.68 448.267 189.447 447.427 188.98C446.587 188.5 445.927 187.833 445.447 186.98C444.967 186.113 444.727 185.113 444.727 183.98C444.727 182.86 444.973 181.867 445.467 181C445.96 180.133 446.633 179.467 447.487 179C448.34 178.533 449.293 178.3 450.347 178.3C451.4 178.3 452.353 178.533 453.207 179C454.06 179.467 454.733 180.133 455.227 181C455.72 181.867 455.967 182.86 455.967 183.98C455.967 185.1 455.713 186.093 455.207 186.96C454.7 187.827 454.007 188.5 453.127 188.98C452.26 189.447 451.3 189.68 450.247 189.68ZM450.247 187.7C450.833 187.7 451.38 187.56 451.887 187.28C452.407 187 452.827 186.58 453.147 186.02C453.467 185.46 453.627 184.78 453.627 183.98C453.627 183.18 453.473 182.507 453.167 181.96C452.86 181.4 452.453 180.98 451.947 180.7C451.44 180.42 450.893 180.28 450.307 180.28C449.72 180.28 449.173 180.42 448.667 180.7C448.173 180.98 447.78 181.4 447.487 181.96C447.193 182.507 447.047 183.18 447.047 183.98C447.047 185.167 447.347 186.087 447.947 186.74C448.56 187.38 449.327 187.7 450.247 187.7ZM460.501 180.08C460.834 179.52 461.274 179.087 461.821 178.78C462.381 178.46 463.041 178.3 463.801 178.3V180.66H463.221C462.327 180.66 461.647 180.887 461.181 181.34C460.727 181.793 460.501 182.58 460.501 183.7V189.5H458.221V178.48H460.501V180.08ZM590.666 180.34V186.44C590.666 186.853 590.759 187.153 590.946 187.34C591.146 187.513 591.479 187.6 591.946 187.6H593.346V189.5H591.546C590.519 189.5 589.733 189.26 589.186 188.78C588.639 188.3 588.366 187.52 588.366 186.44V180.34H587.066V178.48H588.366V175.74H590.666V178.48H593.346V180.34H590.666ZM600.227 189.68C599.187 189.68 598.247 189.447 597.407 188.98C596.567 188.5 595.907 187.833 595.427 186.98C594.947 186.113 594.707 185.113 594.707 183.98C594.707 182.86 594.954 181.867 595.447 181C595.941 180.133 596.614 179.467 597.467 179C598.321 178.533 599.274 178.3 600.327 178.3C601.381 178.3 602.334 178.533 603.187 179C604.041 179.467 604.714 180.133 605.207 181C605.701 181.867 605.947 182.86 605.947 183.98C605.947 185.1 605.694 186.093 605.187 186.96C604.681 187.827 603.987 188.5 603.107 188.98C602.241 189.447 601.281 189.68 600.227 189.68ZM600.227 187.7C600.814 187.7 601.361 187.56 601.867 187.28C602.387 187 602.807 186.58 603.127 186.02C603.447 185.46 603.607 184.78 603.607 183.98C603.607 183.18 603.454 182.507 603.147 181.96C602.841 181.4 602.434 180.98 601.927 180.7C601.421 180.42 600.874 180.28 600.287 180.28C599.701 180.28 599.154 180.42 598.647 180.7C598.154 180.98 597.761 181.4 597.467 181.96C597.174 182.507 597.027 183.18 597.027 183.98C597.027 185.167 597.327 186.087 597.927 186.74C598.541 187.38 599.307 187.7 600.227 187.7ZM623.376 178.48V189.5H621.096V188.2C620.736 188.653 620.263 189.013 619.676 189.28C619.103 189.533 618.49 189.66 617.836 189.66C616.97 189.66 616.19 189.48 615.496 189.12C614.816 188.76 614.276 188.227 613.876 187.52C613.49 186.813 613.296 185.96 613.296 184.96V178.48H615.556V184.62C615.556 185.607 615.803 186.367 616.296 186.9C616.79 187.42 617.463 187.68 618.316 187.68C619.17 187.68 619.843 187.42 620.336 186.9C620.843 186.367 621.096 185.607 621.096 184.62V178.48H623.376ZM628.665 180.1C629.051 179.593 629.578 179.167 630.245 178.82C630.911 178.473 631.665 178.3 632.505 178.3C633.465 178.3 634.338 178.54 635.125 179.02C635.925 179.487 636.551 180.147 637.005 181C637.458 181.853 637.685 182.833 637.685 183.94C637.685 185.047 637.458 186.04 637.005 186.92C636.551 187.787 635.925 188.467 635.125 188.96C634.338 189.44 633.465 189.68 632.505 189.68C631.665 189.68 630.918 189.513 630.265 189.18C629.611 188.833 629.078 188.407 628.665 187.9V194.74H626.385V178.48H628.665V180.1ZM635.365 183.94C635.365 183.18 635.205 182.527 634.885 181.98C634.578 181.42 634.165 181 633.645 180.72C633.138 180.427 632.591 180.28 632.005 180.28C631.431 180.28 630.885 180.427 630.365 180.72C629.858 181.013 629.445 181.44 629.125 182C628.818 182.56 628.665 183.22 628.665 183.98C628.665 184.74 628.818 185.407 629.125 185.98C629.445 186.54 629.858 186.967 630.365 187.26C630.885 187.553 631.431 187.7 632.005 187.7C632.591 187.7 633.138 187.553 633.645 187.26C634.165 186.953 634.578 186.513 634.885 185.94C635.205 185.367 635.365 184.7 635.365 183.94ZM642.219 174.7V189.5H639.939V174.7H642.219ZM649.993 189.68C648.953 189.68 648.013 189.447 647.173 188.98C646.333 188.5 645.673 187.833 645.193 186.98C644.713 186.113 644.473 185.113 644.473 183.98C644.473 182.86 644.72 181.867 645.213 181C645.706 180.133 646.38 179.467 647.233 179C648.086 178.533 649.04 178.3 650.093 178.3C651.146 178.3 652.1 178.533 652.953 179C653.806 179.467 654.48 180.133 654.973 181C655.466 181.867 655.713 182.86 655.713 183.98C655.713 185.1 655.46 186.093 654.953 186.96C654.446 187.827 653.753 188.5 652.873 188.98C652.006 189.447 651.046 189.68 649.993 189.68ZM649.993 187.7C650.58 187.7 651.126 187.56 651.633 187.28C652.153 187 652.573 186.58 652.893 186.02C653.213 185.46 653.373 184.78 653.373 183.98C653.373 183.18 653.22 182.507 652.913 181.96C652.606 181.4 652.2 180.98 651.693 180.7C651.186 180.42 650.64 180.28 650.053 180.28C649.466 180.28 648.92 180.42 648.413 180.7C647.92 180.98 647.526 181.4 647.233 181.96C646.94 182.507 646.793 183.18 646.793 183.98C646.793 185.167 647.093 186.087 647.693 186.74C648.306 187.38 649.073 187.7 649.993 187.7ZM657.207 183.94C657.207 182.833 657.433 181.853 657.887 181C658.353 180.147 658.98 179.487 659.767 179.02C660.567 178.54 661.447 178.3 662.407 178.3C663.273 178.3 664.027 178.473 664.667 178.82C665.32 179.153 665.84 179.573 666.227 180.08V178.48H668.527V189.5H666.227V187.86C665.84 188.38 665.313 188.813 664.647 189.16C663.98 189.507 663.22 189.68 662.367 189.68C661.42 189.68 660.553 189.44 659.767 188.96C658.98 188.467 658.353 187.787 657.887 186.92C657.433 186.04 657.207 185.047 657.207 183.94ZM666.227 183.98C666.227 183.22 666.067 182.56 665.747 182C665.44 181.44 665.033 181.013 664.527 180.72C664.02 180.427 663.473 180.28 662.887 180.28C662.3 180.28 661.753 180.427 661.247 180.72C660.74 181 660.327 181.42 660.007 181.98C659.7 182.527 659.547 183.18 659.547 183.94C659.547 184.7 659.7 185.367 660.007 185.94C660.327 186.513 660.74 186.953 661.247 187.26C661.767 187.553 662.313 187.7 662.887 187.7C663.473 187.7 664.02 187.553 664.527 187.26C665.033 186.967 665.44 186.54 665.747 185.98C666.067 185.407 666.227 184.74 666.227 183.98ZM670.761 183.94C670.761 182.833 670.988 181.853 671.441 181C671.908 180.147 672.535 179.487 673.321 179.02C674.121 178.54 675.008 178.3 675.981 178.3C676.701 178.3 677.408 178.46 678.101 178.78C678.808 179.087 679.368 179.5 679.781 180.02V174.7H682.081V189.5H679.781V187.84C679.408 188.373 678.888 188.813 678.221 189.16C677.568 189.507 676.815 189.68 675.961 189.68C675.001 189.68 674.121 189.44 673.321 188.96C672.535 188.467 671.908 187.787 671.441 186.92C670.988 186.04 670.761 185.047 670.761 183.94ZM679.781 183.98C679.781 183.22 679.621 182.56 679.301 182C678.995 181.44 678.588 181.013 678.081 180.72C677.575 180.427 677.028 180.28 676.441 180.28C675.855 180.28 675.308 180.427 674.801 180.72C674.295 181 673.881 181.42 673.561 181.98C673.255 182.527 673.101 183.18 673.101 183.94C673.101 184.7 673.255 185.367 673.561 185.94C673.881 186.513 674.295 186.953 674.801 187.26C675.321 187.553 675.868 187.7 676.441 187.7C677.028 187.7 677.575 187.553 678.081 187.26C678.588 186.967 678.995 186.54 679.301 185.98C679.621 185.407 679.781 184.74 679.781 183.98ZM691.431 177.02C691.018 177.02 690.671 176.88 690.391 176.6C690.111 176.32 689.971 175.973 689.971 175.56C689.971 175.147 690.111 174.8 690.391 174.52C690.671 174.24 691.018 174.1 691.431 174.1C691.831 174.1 692.171 174.24 692.451 174.52C692.731 174.8 692.871 175.147 692.871 175.56C692.871 175.973 692.731 176.32 692.451 176.6C692.171 176.88 691.831 177.02 691.431 177.02ZM692.551 178.48V189.5H690.271V178.48H692.551ZM708.885 178.3C709.752 178.3 710.525 178.48 711.205 178.84C711.898 179.2 712.438 179.733 712.825 180.44C713.225 181.147 713.425 182 713.425 183V189.5H711.165V183.34C711.165 182.353 710.918 181.6 710.425 181.08C709.932 180.547 709.258 180.28 708.405 180.28C707.552 180.28 706.872 180.547 706.365 181.08C705.872 181.6 705.625 182.353 705.625 183.34V189.5H703.365V183.34C703.365 182.353 703.118 181.6 702.625 181.08C702.132 180.547 701.458 180.28 700.605 180.28C699.752 180.28 699.072 180.547 698.565 181.08C698.072 181.6 697.825 182.353 697.825 183.34V189.5H695.545V178.48H697.825V179.74C698.198 179.287 698.672 178.933 699.245 178.68C699.818 178.427 700.432 178.3 701.085 178.3C701.965 178.3 702.752 178.487 703.445 178.86C704.138 179.233 704.672 179.773 705.045 180.48C705.378 179.813 705.898 179.287 706.605 178.9C707.312 178.5 708.072 178.3 708.885 178.3ZM715.566 183.94C715.566 182.833 715.793 181.853 716.246 181C716.713 180.147 717.34 179.487 718.126 179.02C718.926 178.54 719.806 178.3 720.766 178.3C721.633 178.3 722.386 178.473 723.026 178.82C723.68 179.153 724.2 179.573 724.586 180.08V178.48H726.886V189.5H724.586V187.86C724.2 188.38 723.673 188.813 723.006 189.16C722.34 189.507 721.58 189.68 720.726 189.68C719.78 189.68 718.913 189.44 718.126 188.96C717.34 188.467 716.713 187.787 716.246 186.92C715.793 186.04 715.566 185.047 715.566 183.94ZM724.586 183.98C724.586 183.22 724.426 182.56 724.106 182C723.8 181.44 723.393 181.013 722.886 180.72C722.38 180.427 721.833 180.28 721.246 180.28C720.66 180.28 720.113 180.427 719.606 180.72C719.1 181 718.686 181.42 718.366 181.98C718.06 182.527 717.906 183.18 717.906 183.94C717.906 184.7 718.06 185.367 718.366 185.94C718.686 186.513 719.1 186.953 719.606 187.26C720.126 187.553 720.673 187.7 721.246 187.7C721.833 187.7 722.38 187.553 722.886 187.26C723.393 186.967 723.8 186.54 724.106 185.98C724.426 185.407 724.586 184.74 724.586 183.98ZM734.321 178.3C735.174 178.3 735.928 178.473 736.581 178.82C737.248 179.153 737.768 179.573 738.141 180.08V178.48H740.441V189.68C740.441 190.693 740.228 191.593 739.801 192.38C739.374 193.18 738.754 193.807 737.941 194.26C737.141 194.713 736.181 194.94 735.061 194.94C733.568 194.94 732.328 194.587 731.341 193.88C730.354 193.187 729.794 192.24 729.661 191.04H731.921C732.094 191.613 732.461 192.073 733.021 192.42C733.594 192.78 734.274 192.96 735.061 192.96C735.981 192.96 736.721 192.68 737.281 192.12C737.854 191.56 738.141 190.747 738.141 189.68V187.84C737.754 188.36 737.228 188.8 736.561 189.16C735.908 189.507 735.161 189.68 734.321 189.68C733.361 189.68 732.481 189.44 731.681 188.96C730.894 188.467 730.268 187.787 729.801 186.92C729.348 186.04 729.121 185.047 729.121 183.94C729.121 182.833 729.348 181.853 729.801 181C730.268 180.147 730.894 179.487 731.681 179.02C732.481 178.54 733.361 178.3 734.321 178.3ZM738.141 183.98C738.141 183.22 737.981 182.56 737.661 182C737.354 181.44 736.948 181.013 736.441 180.72C735.934 180.427 735.388 180.28 734.801 180.28C734.214 180.28 733.668 180.427 733.161 180.72C732.654 181 732.241 181.42 731.921 181.98C731.614 182.527 731.461 183.18 731.461 183.94C731.461 184.7 731.614 185.367 731.921 185.94C732.241 186.513 732.654 186.953 733.161 187.26C733.681 187.553 734.228 187.7 734.801 187.7C735.388 187.7 735.934 187.553 736.441 187.26C736.948 186.967 737.354 186.54 737.661 185.98C737.981 185.407 738.141 184.74 738.141 183.98ZM753.536 183.72C753.536 184.133 753.509 184.507 753.456 184.84H745.036C745.102 185.72 745.429 186.427 746.016 186.96C746.602 187.493 747.322 187.76 748.176 187.76C749.402 187.76 750.269 187.247 750.776 186.22H753.236C752.902 187.233 752.296 188.067 751.416 188.72C750.549 189.36 749.469 189.68 748.176 189.68C747.122 189.68 746.176 189.447 745.336 188.98C744.509 188.5 743.856 187.833 743.376 186.98C742.909 186.113 742.676 185.113 742.676 183.98C742.676 182.847 742.902 181.853 743.356 181C743.822 180.133 744.469 179.467 745.296 179C746.136 178.533 747.096 178.3 748.176 178.3C749.216 178.3 750.142 178.527 750.956 178.98C751.769 179.433 752.402 180.073 752.856 180.9C753.309 181.713 753.536 182.653 753.536 183.72ZM751.156 183C751.142 182.16 750.842 181.487 750.256 180.98C749.669 180.473 748.942 180.22 748.076 180.22C747.289 180.22 746.616 180.473 746.056 180.98C745.496 181.473 745.162 182.147 745.056 183H751.156ZM759.779 189.68C758.913 189.68 758.133 189.527 757.439 189.22C756.759 188.9 756.219 188.473 755.819 187.94C755.419 187.393 755.206 186.787 755.179 186.12H757.539C757.579 186.587 757.799 186.98 758.199 187.3C758.613 187.607 759.126 187.76 759.739 187.76C760.379 187.76 760.873 187.64 761.219 187.4C761.579 187.147 761.759 186.827 761.759 186.44C761.759 186.027 761.559 185.72 761.159 185.52C760.773 185.32 760.153 185.1 759.299 184.86C758.473 184.633 757.799 184.413 757.279 184.2C756.759 183.987 756.306 183.66 755.919 183.22C755.546 182.78 755.359 182.2 755.359 181.48C755.359 180.893 755.533 180.36 755.879 179.88C756.226 179.387 756.719 179 757.359 178.72C758.013 178.44 758.759 178.3 759.599 178.3C760.853 178.3 761.859 178.62 762.619 179.26C763.393 179.887 763.806 180.747 763.859 181.84H761.579C761.539 181.347 761.339 180.953 760.979 180.66C760.619 180.367 760.133 180.22 759.519 180.22C758.919 180.22 758.459 180.333 758.139 180.56C757.819 180.787 757.659 181.087 757.659 181.46C757.659 181.753 757.766 182 757.979 182.2C758.193 182.4 758.453 182.56 758.759 182.68C759.066 182.787 759.519 182.927 760.119 183.1C760.919 183.313 761.573 183.533 762.079 183.76C762.599 183.973 763.046 184.293 763.419 184.72C763.793 185.147 763.986 185.713 763.999 186.42C763.999 187.047 763.826 187.607 763.479 188.1C763.133 188.593 762.639 188.98 761.999 189.26C761.373 189.54 760.633 189.68 759.779 189.68Z" fill="#535353"/>
<path d="M470.332 182.52C470.332 181.16 470.645 179.94 471.272 178.86C471.912 177.78 472.772 176.94 473.852 176.34C474.945 175.727 476.138 175.42 477.432 175.42C478.912 175.42 480.225 175.787 481.372 176.52C482.532 177.24 483.372 178.267 483.892 179.6H481.152C480.792 178.867 480.292 178.32 479.652 177.96C479.012 177.6 478.272 177.42 477.432 177.42C476.512 177.42 475.692 177.627 474.972 178.04C474.252 178.453 473.685 179.047 473.272 179.82C472.872 180.593 472.672 181.493 472.672 182.52C472.672 183.547 472.872 184.447 473.272 185.22C473.685 185.993 474.252 186.593 474.972 187.02C475.692 187.433 476.512 187.64 477.432 187.64C478.272 187.64 479.012 187.46 479.652 187.1C480.292 186.74 480.792 186.193 481.152 185.46H483.892C483.372 186.793 482.532 187.82 481.372 188.54C480.225 189.26 478.912 189.62 477.432 189.62C476.125 189.62 474.932 189.32 473.852 188.72C472.772 188.107 471.912 187.26 471.272 186.18C470.645 185.1 470.332 183.88 470.332 182.52ZM492.261 178.3C493.101 178.3 493.847 178.48 494.501 178.84C495.167 179.2 495.687 179.733 496.061 180.44C496.447 181.147 496.641 182 496.641 183V189.5H494.381V183.34C494.381 182.353 494.134 181.6 493.641 181.08C493.147 180.547 492.474 180.28 491.621 180.28C490.767 180.28 490.087 180.547 489.581 181.08C489.087 181.6 488.841 182.353 488.841 183.34V189.5H486.561V174.7H488.841V179.76C489.227 179.293 489.714 178.933 490.301 178.68C490.901 178.427 491.554 178.3 492.261 178.3ZM504.329 189.68C503.289 189.68 502.349 189.447 501.509 188.98C500.669 188.5 500.009 187.833 499.529 186.98C499.049 186.113 498.809 185.113 498.809 183.98C498.809 182.86 499.055 181.867 499.549 181C500.042 180.133 500.715 179.467 501.569 179C502.422 178.533 503.375 178.3 504.429 178.3C505.482 178.3 506.435 178.533 507.289 179C508.142 179.467 508.815 180.133 509.309 181C509.802 181.867 510.049 182.86 510.049 183.98C510.049 185.1 509.795 186.093 509.289 186.96C508.782 187.827 508.089 188.5 507.209 188.98C506.342 189.447 505.382 189.68 504.329 189.68ZM504.329 187.7C504.915 187.7 505.462 187.56 505.969 187.28C506.489 187 506.909 186.58 507.229 186.02C507.549 185.46 507.709 184.78 507.709 183.98C507.709 183.18 507.555 182.507 507.249 181.96C506.942 181.4 506.535 180.98 506.029 180.7C505.522 180.42 504.975 180.28 504.389 180.28C503.802 180.28 503.255 180.42 502.749 180.7C502.255 180.98 501.862 181.4 501.569 181.96C501.275 182.507 501.129 183.18 501.129 183.98C501.129 185.167 501.429 186.087 502.029 186.74C502.642 187.38 503.409 187.7 504.329 187.7ZM517.083 189.68C516.043 189.68 515.103 189.447 514.263 188.98C513.423 188.5 512.763 187.833 512.283 186.98C511.803 186.113 511.563 185.113 511.563 183.98C511.563 182.86 511.809 181.867 512.303 181C512.796 180.133 513.469 179.467 514.323 179C515.176 178.533 516.129 178.3 517.183 178.3C518.236 178.3 519.189 178.533 520.043 179C520.896 179.467 521.569 180.133 522.063 181C522.556 181.867 522.803 182.86 522.803 183.98C522.803 185.1 522.549 186.093 522.043 186.96C521.536 187.827 520.843 188.5 519.963 188.98C519.096 189.447 518.136 189.68 517.083 189.68ZM517.083 187.7C517.669 187.7 518.216 187.56 518.723 187.28C519.243 187 519.663 186.58 519.983 186.02C520.303 185.46 520.463 184.78 520.463 183.98C520.463 183.18 520.309 182.507 520.003 181.96C519.696 181.4 519.289 180.98 518.783 180.7C518.276 180.42 517.729 180.28 517.143 180.28C516.556 180.28 516.009 180.42 515.503 180.7C515.009 180.98 514.616 181.4 514.323 181.96C514.029 182.507 513.883 183.18 513.883 183.98C513.883 185.167 514.183 186.087 514.783 186.74C515.396 187.38 516.163 187.7 517.083 187.7ZM529.057 189.68C528.19 189.68 527.41 189.527 526.717 189.22C526.037 188.9 525.497 188.473 525.097 187.94C524.697 187.393 524.483 186.787 524.457 186.12H526.817C526.857 186.587 527.077 186.98 527.477 187.3C527.89 187.607 528.403 187.76 529.017 187.76C529.657 187.76 530.15 187.64 530.497 187.4C530.857 187.147 531.037 186.827 531.037 186.44C531.037 186.027 530.837 185.72 530.437 185.52C530.05 185.32 529.43 185.1 528.577 184.86C527.75 184.633 527.077 184.413 526.557 184.2C526.037 183.987 525.583 183.66 525.197 183.22C524.823 182.78 524.637 182.2 524.637 181.48C524.637 180.893 524.81 180.36 525.157 179.88C525.503 179.387 525.997 179 526.637 178.72C527.29 178.44 528.037 178.3 528.877 178.3C530.13 178.3 531.137 178.62 531.897 179.26C532.67 179.887 533.083 180.747 533.137 181.84H530.857C530.817 181.347 530.617 180.953 530.257 180.66C529.897 180.367 529.41 180.22 528.797 180.22C528.197 180.22 527.737 180.333 527.417 180.56C527.097 180.787 526.937 181.087 526.937 181.46C526.937 181.753 527.043 182 527.257 182.2C527.47 182.4 527.73 182.56 528.037 182.68C528.343 182.787 528.797 182.927 529.397 183.1C530.197 183.313 530.85 183.533 531.357 183.76C531.877 183.973 532.323 184.293 532.697 184.72C533.07 185.147 533.263 185.713 533.277 186.42C533.277 187.047 533.103 187.607 532.757 188.1C532.41 188.593 531.917 188.98 531.277 189.26C530.65 189.54 529.91 189.68 529.057 189.68ZM545.84 183.72C545.84 184.133 545.814 184.507 545.76 184.84H537.34C537.407 185.72 537.734 186.427 538.32 186.96C538.907 187.493 539.627 187.76 540.48 187.76C541.707 187.76 542.574 187.247 543.08 186.22H545.54C545.207 187.233 544.6 188.067 543.72 188.72C542.854 189.36 541.774 189.68 540.48 189.68C539.427 189.68 538.48 189.447 537.64 188.98C536.814 188.5 536.16 187.833 535.68 186.98C535.214 186.113 534.98 185.113 534.98 183.98C534.98 182.847 535.207 181.853 535.66 181C536.127 180.133 536.774 179.467 537.6 179C538.44 178.533 539.4 178.3 540.48 178.3C541.52 178.3 542.447 178.527 543.26 178.98C544.074 179.433 544.707 180.073 545.16 180.9C545.614 181.713 545.84 182.653 545.84 183.72ZM543.46 183C543.447 182.16 543.147 181.487 542.56 180.98C541.974 180.473 541.247 180.22 540.38 180.22C539.594 180.22 538.92 180.473 538.36 180.98C537.8 181.473 537.467 182.147 537.36 183H543.46ZM557.899 180.34H555.859V189.5H553.559V180.34H552.259V178.48H553.559V177.7C553.559 176.433 553.893 175.513 554.559 174.94C555.239 174.353 556.299 174.06 557.739 174.06V175.96C557.046 175.96 556.559 176.093 556.279 176.36C555.999 176.613 555.859 177.06 555.859 177.7V178.48H557.899V180.34ZM561.08 177.02C560.667 177.02 560.32 176.88 560.04 176.6C559.76 176.32 559.62 175.973 559.62 175.56C559.62 175.147 559.76 174.8 560.04 174.52C560.32 174.24 560.667 174.1 561.08 174.1C561.48 174.1 561.82 174.24 562.1 174.52C562.38 174.8 562.52 175.147 562.52 175.56C562.52 175.973 562.38 176.32 562.1 176.6C561.82 176.88 561.48 177.02 561.08 177.02ZM562.2 178.48V189.5H559.92V178.48H562.2ZM567.473 174.7V189.5H565.193V174.7H567.473ZM580.567 183.72C580.567 184.133 580.54 184.507 580.487 184.84H572.067C572.133 185.72 572.46 186.427 573.047 186.96C573.633 187.493 574.353 187.76 575.207 187.76C576.433 187.76 577.3 187.247 577.807 186.22H580.267C579.933 187.233 579.327 188.067 578.447 188.72C577.58 189.36 576.5 189.68 575.207 189.68C574.153 189.68 573.207 189.447 572.367 188.98C571.54 188.5 570.887 187.833 570.407 186.98C569.94 186.113 569.707 185.113 569.707 183.98C569.707 182.847 569.933 181.853 570.387 181C570.853 180.133 571.5 179.467 572.327 179C573.167 178.533 574.127 178.3 575.207 178.3C576.247 178.3 577.173 178.527 577.987 178.98C578.8 179.433 579.433 180.073 579.887 180.9C580.34 181.713 580.567 182.653 580.567 183.72ZM578.187 183C578.173 182.16 577.873 181.487 577.287 180.98C576.7 180.473 575.973 180.22 575.107 180.22C574.32 180.22 573.647 180.473 573.087 180.98C572.527 181.473 572.193 182.147 572.087 183H578.187Z" fill="#0095FF"/>
<path d="M505.746 213.668C505.746 214.163 505.629 214.629 505.396 215.068C505.162 215.507 504.789 215.866 504.276 216.146C503.762 216.417 503.104 216.552 502.302 216.552H500.538V220.5H498.942V210.77H502.302C503.048 210.77 503.678 210.901 504.192 211.162C504.714 211.414 505.102 211.759 505.354 212.198C505.615 212.637 505.746 213.127 505.746 213.668ZM502.302 215.25C502.908 215.25 503.361 215.115 503.66 214.844C503.958 214.564 504.108 214.172 504.108 213.668C504.108 212.604 503.506 212.072 502.302 212.072H500.538V215.25H502.302ZM515.262 220.5H513.666L508.864 213.234V220.5H507.268V210.756H508.864L513.666 218.008V210.756H515.262V220.5ZM524.4 213.57C524.148 213.085 523.798 212.721 523.35 212.478C522.902 212.226 522.384 212.1 521.796 212.1C521.152 212.1 520.578 212.245 520.074 212.534C519.57 212.823 519.173 213.234 518.884 213.766C518.604 214.298 518.464 214.914 518.464 215.614C518.464 216.314 518.604 216.935 518.884 217.476C519.173 218.008 519.57 218.419 520.074 218.708C520.578 218.997 521.152 219.142 521.796 219.142C522.664 219.142 523.368 218.899 523.91 218.414C524.451 217.929 524.782 217.271 524.904 216.44H521.25V215.166H526.612V216.412C526.509 217.168 526.238 217.863 525.8 218.498C525.37 219.133 524.806 219.641 524.106 220.024C523.415 220.397 522.645 220.584 521.796 220.584C520.881 220.584 520.046 220.374 519.29 219.954C518.534 219.525 517.932 218.932 517.484 218.176C517.045 217.42 516.826 216.566 516.826 215.614C516.826 214.662 517.045 213.808 517.484 213.052C517.932 212.296 518.534 211.708 519.29 211.288C520.055 210.859 520.89 210.644 521.796 210.644C522.832 210.644 523.751 210.901 524.554 211.414C525.366 211.918 525.954 212.637 526.318 213.57H524.4ZM535.168 220.626C534.44 220.626 533.782 220.463 533.194 220.136C532.606 219.8 532.144 219.333 531.808 218.736C531.472 218.129 531.304 217.429 531.304 216.636C531.304 215.852 531.477 215.157 531.822 214.55C532.168 213.943 532.639 213.477 533.236 213.15C533.834 212.823 534.501 212.66 535.238 212.66C535.976 212.66 536.643 212.823 537.24 213.15C537.838 213.477 538.309 213.943 538.654 214.55C539 215.157 539.172 215.852 539.172 216.636C539.172 217.42 538.995 218.115 538.64 218.722C538.286 219.329 537.8 219.8 537.184 220.136C536.578 220.463 535.906 220.626 535.168 220.626ZM535.168 219.24C535.579 219.24 535.962 219.142 536.316 218.946C536.68 218.75 536.974 218.456 537.198 218.064C537.422 217.672 537.534 217.196 537.534 216.636C537.534 216.076 537.427 215.605 537.212 215.222C536.998 214.83 536.713 214.536 536.358 214.34C536.004 214.144 535.621 214.046 535.21 214.046C534.8 214.046 534.417 214.144 534.062 214.34C533.717 214.536 533.442 214.83 533.236 215.222C533.031 215.605 532.928 216.076 532.928 216.636C532.928 217.467 533.138 218.111 533.558 218.568C533.988 219.016 534.524 219.24 535.168 219.24ZM542.346 213.906C542.58 213.514 542.888 213.211 543.27 212.996C543.662 212.772 544.124 212.66 544.656 212.66V214.312H544.25C543.625 214.312 543.149 214.471 542.822 214.788C542.505 215.105 542.346 215.656 542.346 216.44V220.5H540.75V212.786H542.346V213.906ZM555.066 210.77V217.784C555.066 218.652 554.8 219.338 554.268 219.842C553.745 220.346 553.055 220.598 552.196 220.598C551.337 220.598 550.642 220.346 550.11 219.842C549.587 219.338 549.326 218.652 549.326 217.784H550.936C550.945 218.213 551.053 218.554 551.258 218.806C551.473 219.058 551.785 219.184 552.196 219.184C552.607 219.184 552.919 219.058 553.134 218.806C553.349 218.545 553.456 218.204 553.456 217.784V210.77H555.066ZM564.466 213.668C564.466 214.163 564.35 214.629 564.116 215.068C563.883 215.507 563.51 215.866 562.996 216.146C562.483 216.417 561.825 216.552 561.022 216.552H559.258V220.5H557.662V210.77H561.022C561.769 210.77 562.399 210.901 562.912 211.162C563.435 211.414 563.822 211.759 564.074 212.198C564.336 212.637 564.466 213.127 564.466 213.668ZM561.022 215.25C561.629 215.25 562.082 215.115 562.38 214.844C562.679 214.564 562.828 214.172 562.828 213.668C562.828 212.604 562.226 212.072 561.022 212.072H559.258V215.25H561.022ZM567.584 212.058V214.914H570.944V216.216H567.584V219.198H571.364V220.5H565.988V210.756H571.364V212.058H567.584ZM580.372 213.57C580.12 213.085 579.77 212.721 579.322 212.478C578.874 212.226 578.356 212.1 577.768 212.1C577.124 212.1 576.55 212.245 576.046 212.534C575.542 212.823 575.146 213.234 574.856 213.766C574.576 214.298 574.436 214.914 574.436 215.614C574.436 216.314 574.576 216.935 574.856 217.476C575.146 218.008 575.542 218.419 576.046 218.708C576.55 218.997 577.124 219.142 577.768 219.142C578.636 219.142 579.341 218.899 579.882 218.414C580.424 217.929 580.755 217.271 580.876 216.44H577.222V215.166H582.584V216.412C582.482 217.168 582.211 217.863 581.772 218.498C581.343 219.133 580.778 219.641 580.078 220.024C579.388 220.397 578.618 220.584 577.768 220.584C576.854 220.584 576.018 220.374 575.262 219.954C574.506 219.525 573.904 218.932 573.456 218.176C573.018 217.42 572.798 216.566 572.798 215.614C572.798 214.662 573.018 213.808 573.456 213.052C573.904 212.296 574.506 211.708 575.262 211.288C576.028 210.859 576.863 210.644 577.768 210.644C578.804 210.644 579.724 210.901 580.526 211.414C581.338 211.918 581.926 212.637 582.29 213.57H580.372Z" fill="#535353"/>
</svg>
