<svg width="322" height="322" viewBox="0 0 322 322" fill="none" xmlns="http://www.w3.org/2000/svg">
<rect x="1" y="1" width="320" height="320" rx="24" fill="white"/>
<rect x="1" y="1" width="320" height="320" rx="24" stroke="#0095FF" stroke-linecap="round" stroke-dasharray="10 10"/>
<mask id="mask0_974_35157" style="mask-type:alpha" maskUnits="userSpaceOnUse" x="137" y="80" width="48" height="48">
<rect x="137" y="80" width="48" height="48" fill="#D9D9D9"/>
</mask>
<g mask="url(#mask0_974_35157)">
<path d="M159 112V95.7L153.8 100.9L151 98L161 88L171 98L168.2 100.9L163 95.7V112H159ZM149 120C147.9 120 146.958 119.608 146.175 118.825C145.392 118.042 145 117.1 145 116V110H149V116H173V110H177V116C177 117.1 176.608 118.042 175.825 118.825C175.042 119.608 174.1 120 173 120H149Z" fill="#535353"/>
</g>
<path d="M34.4033 160.1C35.8833 160.1 37.1766 160.387 38.2833 160.96C39.4033 161.52 40.2633 162.333 40.8633 163.4C41.4766 164.453 41.7833 165.687 41.7833 167.1C41.7833 168.513 41.4766 169.74 40.8633 170.78C40.2633 171.82 39.4033 172.62 38.2833 173.18C37.1766 173.727 35.8833 174 34.4033 174H29.8633V160.1H34.4033ZM34.4033 172.14C36.0299 172.14 37.2766 171.7 38.1433 170.82C39.0099 169.94 39.4433 168.7 39.4433 167.1C39.4433 165.487 39.0099 164.227 38.1433 163.32C37.2766 162.413 36.0299 161.96 34.4033 161.96H32.1433V172.14H34.4033ZM46.323 164.58C46.6563 164.02 47.0963 163.587 47.643 163.28C48.203 162.96 48.863 162.8 49.623 162.8V165.16H49.043C48.1496 165.16 47.4696 165.387 47.003 165.84C46.5496 166.293 46.323 167.08 46.323 168.2V174H44.043V162.98H46.323V164.58ZM50.9588 168.44C50.9588 167.333 51.1854 166.353 51.6388 165.5C52.1054 164.647 52.7321 163.987 53.5188 163.52C54.3188 163.04 55.1988 162.8 56.1588 162.8C57.0254 162.8 57.7788 162.973 58.4188 163.32C59.0721 163.653 59.5921 164.073 59.9788 164.58V162.98H62.2788V174H59.9788V172.36C59.5921 172.88 59.0654 173.313 58.3988 173.66C57.7321 174.007 56.9721 174.18 56.1188 174.18C55.1721 174.18 54.3054 173.94 53.5188 173.46C52.7321 172.967 52.1054 172.287 51.6388 171.42C51.1854 170.54 50.9588 169.547 50.9588 168.44ZM59.9788 168.48C59.9788 167.72 59.8188 167.06 59.4988 166.5C59.1921 165.94 58.7854 165.513 58.2788 165.22C57.7721 164.927 57.2254 164.78 56.6388 164.78C56.0521 164.78 55.5054 164.927 54.9988 165.22C54.4921 165.5 54.0788 165.92 53.7588 166.48C53.4521 167.027 53.2988 167.68 53.2988 168.44C53.2988 169.2 53.4521 169.867 53.7588 170.44C54.0788 171.013 54.4921 171.453 54.9988 171.76C55.5188 172.053 56.0654 172.2 56.6388 172.2C57.2254 172.2 57.7721 172.053 58.2788 171.76C58.7854 171.467 59.1921 171.04 59.4988 170.48C59.8188 169.907 59.9788 169.24 59.9788 168.48ZM69.7134 162.8C70.5668 162.8 71.3201 162.973 71.9734 163.32C72.6401 163.653 73.1601 164.073 73.5334 164.58V162.98H75.8334V174.18C75.8334 175.193 75.6201 176.093 75.1934 176.88C74.7668 177.68 74.1468 178.307 73.3334 178.76C72.5334 179.213 71.5734 179.44 70.4534 179.44C68.9601 179.44 67.7201 179.087 66.7334 178.38C65.7468 177.687 65.1868 176.74 65.0534 175.54H67.3134C67.4868 176.113 67.8534 176.573 68.4134 176.92C68.9868 177.28 69.6668 177.46 70.4534 177.46C71.3734 177.46 72.1134 177.18 72.6734 176.62C73.2468 176.06 73.5334 175.247 73.5334 174.18V172.34C73.1468 172.86 72.6201 173.3 71.9534 173.66C71.3001 174.007 70.5534 174.18 69.7134 174.18C68.7534 174.18 67.8734 173.94 67.0734 173.46C66.2868 172.967 65.6601 172.287 65.1934 171.42C64.7401 170.54 64.5134 169.547 64.5134 168.44C64.5134 167.333 64.7401 166.353 65.1934 165.5C65.6601 164.647 66.2868 163.987 67.0734 163.52C67.8734 163.04 68.7534 162.8 69.7134 162.8ZM73.5334 168.48C73.5334 167.72 73.3734 167.06 73.0534 166.5C72.7468 165.94 72.3401 165.513 71.8334 165.22C71.3268 164.927 70.7801 164.78 70.1934 164.78C69.6068 164.78 69.0601 164.927 68.5534 165.22C68.0468 165.5 67.6334 165.92 67.3134 166.48C67.0068 167.027 66.8534 167.68 66.8534 168.44C66.8534 169.2 67.0068 169.867 67.3134 170.44C67.6334 171.013 68.0468 171.453 68.5534 171.76C69.0734 172.053 69.6201 172.2 70.1934 172.2C70.7801 172.2 71.3268 172.053 71.8334 171.76C72.3401 171.467 72.7468 171.04 73.0534 170.48C73.3734 169.907 73.5334 169.24 73.5334 168.48ZM94.7634 174L93.0434 172.28C92.3768 172.947 91.6501 173.447 90.8634 173.78C90.0768 174.1 89.1968 174.26 88.2234 174.26C87.2368 174.26 86.3634 174.087 85.6034 173.74C84.8434 173.393 84.2568 172.9 83.8434 172.26C83.4301 171.607 83.2234 170.853 83.2234 170C83.2234 169.04 83.4968 168.187 84.0434 167.44C84.5901 166.68 85.4034 166.08 86.4834 165.64C86.0968 165.173 85.8234 164.74 85.6634 164.34C85.5034 163.927 85.4234 163.473 85.4234 162.98C85.4234 162.367 85.5768 161.82 85.8834 161.34C86.2034 160.86 86.6568 160.48 87.2434 160.2C87.8301 159.92 88.5101 159.78 89.2834 159.78C90.0701 159.78 90.7368 159.933 91.2834 160.24C91.8434 160.533 92.2568 160.94 92.5234 161.46C92.8034 161.98 92.9168 162.56 92.8634 163.2H90.5834C90.5968 162.707 90.4768 162.327 90.2234 162.06C89.9701 161.78 89.6234 161.64 89.1834 161.64C88.7434 161.64 88.3834 161.773 88.1034 162.04C87.8368 162.293 87.7034 162.607 87.7034 162.98C87.7034 163.34 87.8034 163.7 88.0034 164.06C88.2168 164.407 88.5834 164.86 89.1034 165.42L92.7834 169.08L94.2034 166.74H96.6634L94.8634 169.82L94.3634 170.64L97.7434 174H94.7634ZM88.2234 172.32C89.4768 172.32 90.5834 171.807 91.5434 170.78L87.8634 167.08C86.2901 167.707 85.5034 168.653 85.5034 169.92C85.5034 170.6 85.7568 171.173 86.2634 171.64C86.7701 172.093 87.4234 172.32 88.2234 172.32ZM108.974 160.1C110.454 160.1 111.747 160.387 112.854 160.96C113.974 161.52 114.834 162.333 115.434 163.4C116.047 164.453 116.354 165.687 116.354 167.1C116.354 168.513 116.047 169.74 115.434 170.78C114.834 171.82 113.974 172.62 112.854 173.18C111.747 173.727 110.454 174 108.974 174H104.434V160.1H108.974ZM108.974 172.14C110.6 172.14 111.847 171.7 112.714 170.82C113.58 169.94 114.014 168.7 114.014 167.1C114.014 165.487 113.58 164.227 112.714 163.32C111.847 162.413 110.6 161.96 108.974 161.96H106.714V172.14H108.974ZM120.893 164.58C121.227 164.02 121.667 163.587 122.213 163.28C122.773 162.96 123.433 162.8 124.193 162.8V165.16H123.613C122.72 165.16 122.04 165.387 121.573 165.84C121.12 166.293 120.893 167.08 120.893 168.2V174H118.613V162.98H120.893V164.58ZM131.069 174.18C130.029 174.18 129.089 173.947 128.249 173.48C127.409 173 126.749 172.333 126.269 171.48C125.789 170.613 125.549 169.613 125.549 168.48C125.549 167.36 125.796 166.367 126.289 165.5C126.782 164.633 127.456 163.967 128.309 163.5C129.162 163.033 130.116 162.8 131.169 162.8C132.222 162.8 133.176 163.033 134.029 163.5C134.882 163.967 135.556 164.633 136.049 165.5C136.542 166.367 136.789 167.36 136.789 168.48C136.789 169.6 136.536 170.593 136.029 171.46C135.522 172.327 134.829 173 133.949 173.48C133.082 173.947 132.122 174.18 131.069 174.18ZM131.069 172.2C131.656 172.2 132.202 172.06 132.709 171.78C133.229 171.5 133.649 171.08 133.969 170.52C134.289 169.96 134.449 169.28 134.449 168.48C134.449 167.68 134.296 167.007 133.989 166.46C133.682 165.9 133.276 165.48 132.769 165.2C132.262 164.92 131.716 164.78 131.129 164.78C130.542 164.78 129.996 164.92 129.489 165.2C128.996 165.48 128.602 165.9 128.309 166.46C128.016 167.007 127.869 167.68 127.869 168.48C127.869 169.667 128.169 170.587 128.769 171.24C129.382 171.88 130.149 172.2 131.069 172.2ZM141.323 164.6C141.71 164.093 142.236 163.667 142.903 163.32C143.57 162.973 144.323 162.8 145.163 162.8C146.123 162.8 146.996 163.04 147.783 163.52C148.583 163.987 149.21 164.647 149.663 165.5C150.116 166.353 150.343 167.333 150.343 168.44C150.343 169.547 150.116 170.54 149.663 171.42C149.21 172.287 148.583 172.967 147.783 173.46C146.996 173.94 146.123 174.18 145.163 174.18C144.323 174.18 143.576 174.013 142.923 173.68C142.27 173.333 141.736 172.907 141.323 172.4V179.24H139.043V162.98H141.323V164.6ZM148.023 168.44C148.023 167.68 147.863 167.027 147.543 166.48C147.236 165.92 146.823 165.5 146.303 165.22C145.796 164.927 145.25 164.78 144.663 164.78C144.09 164.78 143.543 164.927 143.023 165.22C142.516 165.513 142.103 165.94 141.783 166.5C141.476 167.06 141.323 167.72 141.323 168.48C141.323 169.24 141.476 169.907 141.783 170.48C142.103 171.04 142.516 171.467 143.023 171.76C143.543 172.053 144.09 172.2 144.663 172.2C145.25 172.2 145.796 172.053 146.303 171.76C146.823 171.453 147.236 171.013 147.543 170.44C147.863 169.867 148.023 169.2 148.023 168.44ZM162.573 174.18C161.533 174.18 160.593 173.947 159.753 173.48C158.913 173 158.253 172.333 157.773 171.48C157.293 170.613 157.053 169.613 157.053 168.48C157.053 167.36 157.3 166.367 157.793 165.5C158.286 164.633 158.96 163.967 159.813 163.5C160.666 163.033 161.62 162.8 162.673 162.8C163.726 162.8 164.68 163.033 165.533 163.5C166.386 163.967 167.06 164.633 167.553 165.5C168.046 166.367 168.293 167.36 168.293 168.48C168.293 169.6 168.04 170.593 167.533 171.46C167.026 172.327 166.333 173 165.453 173.48C164.586 173.947 163.626 174.18 162.573 174.18ZM162.573 172.2C163.16 172.2 163.706 172.06 164.213 171.78C164.733 171.5 165.153 171.08 165.473 170.52C165.793 169.96 165.953 169.28 165.953 168.48C165.953 167.68 165.8 167.007 165.493 166.46C165.186 165.9 164.78 165.48 164.273 165.2C163.766 164.92 163.22 164.78 162.633 164.78C162.046 164.78 161.5 164.92 160.993 165.2C160.5 165.48 160.106 165.9 159.813 166.46C159.52 167.007 159.373 167.68 159.373 168.48C159.373 169.667 159.673 170.587 160.273 171.24C160.886 171.88 161.653 172.2 162.573 172.2ZM172.827 164.58C173.16 164.02 173.6 163.587 174.147 163.28C174.707 162.96 175.367 162.8 176.127 162.8V165.16H175.547C174.654 165.16 173.974 165.387 173.507 165.84C173.054 166.293 172.827 167.08 172.827 168.2V174H170.547V162.98H172.827V164.58ZM81.2733 194.84V200.94C81.2733 201.353 81.3666 201.653 81.5533 201.84C81.7533 202.013 82.0866 202.1 82.5533 202.1H83.9533V204H82.1533C81.1266 204 80.3399 203.76 79.7933 203.28C79.2466 202.8 78.9733 202.02 78.9733 200.94V194.84H77.6733V192.98H78.9733V190.24H81.2733V192.98H83.9533V194.84H81.2733ZM90.8347 204.18C89.7947 204.18 88.8547 203.947 88.0147 203.48C87.1747 203 86.5147 202.333 86.0347 201.48C85.5547 200.613 85.3147 199.613 85.3147 198.48C85.3147 197.36 85.5614 196.367 86.0547 195.5C86.548 194.633 87.2214 193.967 88.0747 193.5C88.928 193.033 89.8814 192.8 90.9347 192.8C91.988 192.8 92.9414 193.033 93.7947 193.5C94.648 193.967 95.3214 194.633 95.8147 195.5C96.308 196.367 96.5547 197.36 96.5547 198.48C96.5547 199.6 96.3014 200.593 95.7947 201.46C95.288 202.327 94.5947 203 93.7147 203.48C92.848 203.947 91.888 204.18 90.8347 204.18ZM90.8347 202.2C91.4214 202.2 91.968 202.06 92.4747 201.78C92.9947 201.5 93.4147 201.08 93.7347 200.52C94.0547 199.96 94.2147 199.28 94.2147 198.48C94.2147 197.68 94.0614 197.007 93.7547 196.46C93.448 195.9 93.0414 195.48 92.5347 195.2C92.028 194.92 91.4814 194.78 90.8947 194.78C90.308 194.78 89.7614 194.92 89.2547 195.2C88.7614 195.48 88.368 195.9 88.0747 196.46C87.7814 197.007 87.6347 197.68 87.6347 198.48C87.6347 199.667 87.9347 200.587 88.5347 201.24C89.148 201.88 89.9147 202.2 90.8347 202.2ZM113.984 192.98V204H111.704V202.7C111.344 203.153 110.871 203.513 110.284 203.78C109.711 204.033 109.097 204.16 108.444 204.16C107.577 204.16 106.797 203.98 106.104 203.62C105.424 203.26 104.884 202.727 104.484 202.02C104.097 201.313 103.904 200.46 103.904 199.46V192.98H106.164V199.12C106.164 200.107 106.411 200.867 106.904 201.4C107.397 201.92 108.071 202.18 108.924 202.18C109.777 202.18 110.451 201.92 110.944 201.4C111.451 200.867 111.704 200.107 111.704 199.12V192.98H113.984ZM119.272 194.6C119.659 194.093 120.186 193.667 120.852 193.32C121.519 192.973 122.272 192.8 123.112 192.8C124.072 192.8 124.946 193.04 125.732 193.52C126.532 193.987 127.159 194.647 127.612 195.5C128.066 196.353 128.292 197.333 128.292 198.44C128.292 199.547 128.066 200.54 127.612 201.42C127.159 202.287 126.532 202.967 125.732 203.46C124.946 203.94 124.072 204.18 123.112 204.18C122.272 204.18 121.526 204.013 120.872 203.68C120.219 203.333 119.686 202.907 119.272 202.4V209.24H116.992V192.98H119.272V194.6ZM125.972 198.44C125.972 197.68 125.812 197.027 125.492 196.48C125.186 195.92 124.772 195.5 124.252 195.22C123.746 194.927 123.199 194.78 122.612 194.78C122.039 194.78 121.492 194.927 120.972 195.22C120.466 195.513 120.052 195.94 119.732 196.5C119.426 197.06 119.272 197.72 119.272 198.48C119.272 199.24 119.426 199.907 119.732 200.48C120.052 201.04 120.466 201.467 120.972 201.76C121.492 202.053 122.039 202.2 122.612 202.2C123.199 202.2 123.746 202.053 124.252 201.76C124.772 201.453 125.186 201.013 125.492 200.44C125.812 199.867 125.972 199.2 125.972 198.44ZM132.827 189.2V204H130.547V189.2H132.827ZM140.6 204.18C139.56 204.18 138.62 203.947 137.78 203.48C136.94 203 136.28 202.333 135.8 201.48C135.32 200.613 135.08 199.613 135.08 198.48C135.08 197.36 135.327 196.367 135.82 195.5C136.314 194.633 136.987 193.967 137.84 193.5C138.694 193.033 139.647 192.8 140.7 192.8C141.754 192.8 142.707 193.033 143.56 193.5C144.414 193.967 145.087 194.633 145.58 195.5C146.074 196.367 146.32 197.36 146.32 198.48C146.32 199.6 146.067 200.593 145.56 201.46C145.054 202.327 144.36 203 143.48 203.48C142.614 203.947 141.654 204.18 140.6 204.18ZM140.6 202.2C141.187 202.2 141.734 202.06 142.24 201.78C142.76 201.5 143.18 201.08 143.5 200.52C143.82 199.96 143.98 199.28 143.98 198.48C143.98 197.68 143.827 197.007 143.52 196.46C143.214 195.9 142.807 195.48 142.3 195.2C141.794 194.92 141.247 194.78 140.66 194.78C140.074 194.78 139.527 194.92 139.02 195.2C138.527 195.48 138.134 195.9 137.84 196.46C137.547 197.007 137.4 197.68 137.4 198.48C137.4 199.667 137.7 200.587 138.3 201.24C138.914 201.88 139.68 202.2 140.6 202.2ZM147.814 198.44C147.814 197.333 148.041 196.353 148.494 195.5C148.961 194.647 149.588 193.987 150.374 193.52C151.174 193.04 152.054 192.8 153.014 192.8C153.881 192.8 154.634 192.973 155.274 193.32C155.928 193.653 156.448 194.073 156.834 194.58V192.98H159.134V204H156.834V202.36C156.448 202.88 155.921 203.313 155.254 203.66C154.588 204.007 153.828 204.18 152.974 204.18C152.028 204.18 151.161 203.94 150.374 203.46C149.588 202.967 148.961 202.287 148.494 201.42C148.041 200.54 147.814 199.547 147.814 198.44ZM156.834 198.48C156.834 197.72 156.674 197.06 156.354 196.5C156.048 195.94 155.641 195.513 155.134 195.22C154.628 194.927 154.081 194.78 153.494 194.78C152.908 194.78 152.361 194.927 151.854 195.22C151.348 195.5 150.934 195.92 150.614 196.48C150.308 197.027 150.154 197.68 150.154 198.44C150.154 199.2 150.308 199.867 150.614 200.44C150.934 201.013 151.348 201.453 151.854 201.76C152.374 202.053 152.921 202.2 153.494 202.2C154.081 202.2 154.628 202.053 155.134 201.76C155.641 201.467 156.048 201.04 156.354 200.48C156.674 199.907 156.834 199.24 156.834 198.48ZM161.369 198.44C161.369 197.333 161.596 196.353 162.049 195.5C162.516 194.647 163.142 193.987 163.929 193.52C164.729 193.04 165.616 192.8 166.589 192.8C167.309 192.8 168.016 192.96 168.709 193.28C169.416 193.587 169.976 194 170.389 194.52V189.2H172.689V204H170.389V202.34C170.016 202.873 169.496 203.313 168.829 203.66C168.176 204.007 167.422 204.18 166.569 204.18C165.609 204.18 164.729 203.94 163.929 203.46C163.142 202.967 162.516 202.287 162.049 201.42C161.596 200.54 161.369 199.547 161.369 198.44ZM170.389 198.48C170.389 197.72 170.229 197.06 169.909 196.5C169.602 195.94 169.196 195.513 168.689 195.22C168.182 194.927 167.636 194.78 167.049 194.78C166.462 194.78 165.916 194.927 165.409 195.22C164.902 195.5 164.489 195.92 164.169 196.48C163.862 197.027 163.709 197.68 163.709 198.44C163.709 199.2 163.862 199.867 164.169 200.44C164.489 201.013 164.902 201.453 165.409 201.76C165.929 202.053 166.476 202.2 167.049 202.2C167.636 202.2 168.182 202.053 168.689 201.76C169.196 201.467 169.602 201.04 169.909 200.48C170.229 199.907 170.389 199.24 170.389 198.48ZM183.159 190.1V204H180.879V190.1H183.159ZM199.492 192.8C200.359 192.8 201.132 192.98 201.812 193.34C202.506 193.7 203.046 194.233 203.432 194.94C203.832 195.647 204.032 196.5 204.032 197.5V204H201.772V197.84C201.772 196.853 201.526 196.1 201.032 195.58C200.539 195.047 199.866 194.78 199.012 194.78C198.159 194.78 197.479 195.047 196.972 195.58C196.479 196.1 196.232 196.853 196.232 197.84V204H193.972V197.84C193.972 196.853 193.726 196.1 193.232 195.58C192.739 195.047 192.066 194.78 191.212 194.78C190.359 194.78 189.679 195.047 189.172 195.58C188.679 196.1 188.432 196.853 188.432 197.84V204H186.152V192.98H188.432V194.24C188.806 193.787 189.279 193.433 189.852 193.18C190.426 192.927 191.039 192.8 191.692 192.8C192.572 192.8 193.359 192.987 194.052 193.36C194.746 193.733 195.279 194.273 195.652 194.98C195.986 194.313 196.506 193.787 197.212 193.4C197.919 193 198.679 192.8 199.492 192.8ZM206.174 198.44C206.174 197.333 206.4 196.353 206.854 195.5C207.32 194.647 207.947 193.987 208.734 193.52C209.534 193.04 210.414 192.8 211.374 192.8C212.24 192.8 212.994 192.973 213.634 193.32C214.287 193.653 214.807 194.073 215.194 194.58V192.98H217.494V204H215.194V202.36C214.807 202.88 214.28 203.313 213.614 203.66C212.947 204.007 212.187 204.18 211.334 204.18C210.387 204.18 209.52 203.94 208.734 203.46C207.947 202.967 207.32 202.287 206.854 201.42C206.4 200.54 206.174 199.547 206.174 198.44ZM215.194 198.48C215.194 197.72 215.034 197.06 214.714 196.5C214.407 195.94 214 195.513 213.494 195.22C212.987 194.927 212.44 194.78 211.854 194.78C211.267 194.78 210.72 194.927 210.214 195.22C209.707 195.5 209.294 195.92 208.974 196.48C208.667 197.027 208.514 197.68 208.514 198.44C208.514 199.2 208.667 199.867 208.974 200.44C209.294 201.013 209.707 201.453 210.214 201.76C210.734 202.053 211.28 202.2 211.854 202.2C212.44 202.2 212.987 202.053 213.494 201.76C214 201.467 214.407 201.04 214.714 200.48C215.034 199.907 215.194 199.24 215.194 198.48ZM224.928 192.8C225.782 192.8 226.535 192.973 227.188 193.32C227.855 193.653 228.375 194.073 228.748 194.58V192.98H231.048V204.18C231.048 205.193 230.835 206.093 230.408 206.88C229.982 207.68 229.362 208.307 228.548 208.76C227.748 209.213 226.788 209.44 225.668 209.44C224.175 209.44 222.935 209.087 221.948 208.38C220.962 207.687 220.402 206.74 220.268 205.54H222.528C222.702 206.113 223.068 206.573 223.628 206.92C224.202 207.28 224.882 207.46 225.668 207.46C226.588 207.46 227.328 207.18 227.888 206.62C228.462 206.06 228.748 205.247 228.748 204.18V202.34C228.362 202.86 227.835 203.3 227.168 203.66C226.515 204.007 225.768 204.18 224.928 204.18C223.968 204.18 223.088 203.94 222.288 203.46C221.502 202.967 220.875 202.287 220.408 201.42C219.955 200.54 219.728 199.547 219.728 198.44C219.728 197.333 219.955 196.353 220.408 195.5C220.875 194.647 221.502 193.987 222.288 193.52C223.088 193.04 223.968 192.8 224.928 192.8ZM228.748 198.48C228.748 197.72 228.588 197.06 228.268 196.5C227.962 195.94 227.555 195.513 227.048 195.22C226.542 194.927 225.995 194.78 225.408 194.78C224.822 194.78 224.275 194.927 223.768 195.22C223.262 195.5 222.848 195.92 222.528 196.48C222.222 197.027 222.068 197.68 222.068 198.44C222.068 199.2 222.222 199.867 222.528 200.44C222.848 201.013 223.262 201.453 223.768 201.76C224.288 202.053 224.835 202.2 225.408 202.2C225.995 202.2 226.542 202.053 227.048 201.76C227.555 201.467 227.962 201.04 228.268 200.48C228.588 199.907 228.748 199.24 228.748 198.48ZM244.143 198.22C244.143 198.633 244.116 199.007 244.063 199.34H235.643C235.71 200.22 236.036 200.927 236.623 201.46C237.21 201.993 237.93 202.26 238.783 202.26C240.01 202.26 240.876 201.747 241.383 200.72H243.843C243.51 201.733 242.903 202.567 242.023 203.22C241.156 203.86 240.076 204.18 238.783 204.18C237.73 204.18 236.783 203.947 235.943 203.48C235.116 203 234.463 202.333 233.983 201.48C233.516 200.613 233.283 199.613 233.283 198.48C233.283 197.347 233.51 196.353 233.963 195.5C234.43 194.633 235.076 193.967 235.903 193.5C236.743 193.033 237.703 192.8 238.783 192.8C239.823 192.8 240.75 193.027 241.563 193.48C242.376 193.933 243.01 194.573 243.463 195.4C243.916 196.213 244.143 197.153 244.143 198.22ZM241.763 197.5C241.75 196.66 241.45 195.987 240.863 195.48C240.276 194.973 239.55 194.72 238.683 194.72C237.896 194.72 237.223 194.973 236.663 195.48C236.103 195.973 235.77 196.647 235.663 197.5H241.763ZM101.408 220.1V234H99.1276V224.48L94.8876 234H93.3076L89.0476 224.48V234H86.7676V220.1H89.2276L94.1076 231L98.9676 220.1H101.408ZM114.504 228.22C114.504 228.633 114.478 229.007 114.424 229.34H106.004C106.071 230.22 106.398 230.927 106.984 231.46C107.571 231.993 108.291 232.26 109.144 232.26C110.371 232.26 111.238 231.747 111.744 230.72H114.204C113.871 231.733 113.264 232.567 112.384 233.22C111.518 233.86 110.438 234.18 109.144 234.18C108.091 234.18 107.144 233.947 106.304 233.48C105.478 233 104.824 232.333 104.344 231.48C103.878 230.613 103.644 229.613 103.644 228.48C103.644 227.347 103.871 226.353 104.324 225.5C104.791 224.633 105.438 223.967 106.264 223.5C107.104 223.033 108.064 222.8 109.144 222.8C110.184 222.8 111.111 223.027 111.924 223.48C112.738 223.933 113.371 224.573 113.824 225.4C114.278 226.213 114.504 227.153 114.504 228.22ZM112.124 227.5C112.111 226.66 111.811 225.987 111.224 225.48C110.638 224.973 109.911 224.72 109.044 224.72C108.258 224.72 107.584 224.973 107.024 225.48C106.464 225.973 106.131 226.647 106.024 227.5H112.124ZM115.988 228.44C115.988 227.333 116.215 226.353 116.668 225.5C117.135 224.647 117.761 223.987 118.548 223.52C119.348 223.04 120.228 222.8 121.188 222.8C122.055 222.8 122.808 222.973 123.448 223.32C124.101 223.653 124.621 224.073 125.008 224.58V222.98H127.308V234H125.008V232.36C124.621 232.88 124.095 233.313 123.428 233.66C122.761 234.007 122.001 234.18 121.148 234.18C120.201 234.18 119.335 233.94 118.548 233.46C117.761 232.967 117.135 232.287 116.668 231.42C116.215 230.54 115.988 229.547 115.988 228.44ZM125.008 228.48C125.008 227.72 124.848 227.06 124.528 226.5C124.221 225.94 123.815 225.513 123.308 225.22C122.801 224.927 122.255 224.78 121.668 224.78C121.081 224.78 120.535 224.927 120.028 225.22C119.521 225.5 119.108 225.92 118.788 226.48C118.481 227.027 118.328 227.68 118.328 228.44C118.328 229.2 118.481 229.867 118.788 230.44C119.108 231.013 119.521 231.453 120.028 231.76C120.548 232.053 121.095 232.2 121.668 232.2C122.255 232.2 122.801 232.053 123.308 231.76C123.815 231.467 124.221 231.04 124.528 230.48C124.848 229.907 125.008 229.24 125.008 228.48ZM134.303 234.18C133.436 234.18 132.656 234.027 131.963 233.72C131.283 233.4 130.743 232.973 130.343 232.44C129.943 231.893 129.729 231.287 129.703 230.62H132.063C132.103 231.087 132.323 231.48 132.723 231.8C133.136 232.107 133.649 232.26 134.263 232.26C134.903 232.26 135.396 232.14 135.743 231.9C136.103 231.647 136.283 231.327 136.283 230.94C136.283 230.527 136.083 230.22 135.683 230.02C135.296 229.82 134.676 229.6 133.823 229.36C132.996 229.133 132.323 228.913 131.803 228.7C131.283 228.487 130.829 228.16 130.443 227.72C130.069 227.28 129.883 226.7 129.883 225.98C129.883 225.393 130.056 224.86 130.403 224.38C130.749 223.887 131.243 223.5 131.883 223.22C132.536 222.94 133.283 222.8 134.123 222.8C135.376 222.8 136.383 223.12 137.143 223.76C137.916 224.387 138.329 225.247 138.383 226.34H136.103C136.063 225.847 135.863 225.453 135.503 225.16C135.143 224.867 134.656 224.72 134.043 224.72C133.443 224.72 132.983 224.833 132.663 225.06C132.343 225.287 132.183 225.587 132.183 225.96C132.183 226.253 132.289 226.5 132.503 226.7C132.716 226.9 132.976 227.06 133.283 227.18C133.589 227.287 134.043 227.427 134.643 227.6C135.443 227.813 136.096 228.033 136.603 228.26C137.123 228.473 137.569 228.793 137.943 229.22C138.316 229.647 138.509 230.213 138.523 230.92C138.523 231.547 138.349 232.107 138.003 232.6C137.656 233.093 137.163 233.48 136.523 233.76C135.896 234.04 135.156 234.18 134.303 234.18ZM150.966 222.98V234H148.686V232.7C148.326 233.153 147.853 233.513 147.266 233.78C146.693 234.033 146.08 234.16 145.426 234.16C144.56 234.16 143.78 233.98 143.086 233.62C142.406 233.26 141.866 232.727 141.466 232.02C141.08 231.313 140.886 230.46 140.886 229.46V222.98H143.146V229.12C143.146 230.107 143.393 230.867 143.886 231.4C144.38 231.92 145.053 232.18 145.906 232.18C146.76 232.18 147.433 231.92 147.926 231.4C148.433 230.867 148.686 230.107 148.686 229.12V222.98H150.966ZM156.255 224.58C156.588 224.02 157.028 223.587 157.575 223.28C158.135 222.96 158.795 222.8 159.555 222.8V225.16H158.975C158.081 225.16 157.401 225.387 156.935 225.84C156.481 226.293 156.255 227.08 156.255 228.2V234H153.975V222.98H156.255V224.58ZM171.75 228.22C171.75 228.633 171.724 229.007 171.67 229.34H163.25C163.317 230.22 163.644 230.927 164.23 231.46C164.817 231.993 165.537 232.26 166.39 232.26C167.617 232.26 168.484 231.747 168.99 230.72H171.45C171.117 231.733 170.51 232.567 169.63 233.22C168.764 233.86 167.684 234.18 166.39 234.18C165.337 234.18 164.39 233.947 163.55 233.48C162.724 233 162.07 232.333 161.59 231.48C161.124 230.613 160.89 229.613 160.89 228.48C160.89 227.347 161.117 226.353 161.57 225.5C162.037 224.633 162.684 223.967 163.51 223.5C164.35 223.033 165.31 222.8 166.39 222.8C167.43 222.8 168.357 223.027 169.17 223.48C169.984 223.933 170.617 224.573 171.07 225.4C171.524 226.213 171.75 227.153 171.75 228.22ZM169.37 227.5C169.357 226.66 169.057 225.987 168.47 225.48C167.884 224.973 167.157 224.72 166.29 224.72C165.504 224.72 164.83 224.973 164.27 225.48C163.71 225.973 163.377 226.647 163.27 227.5H169.37ZM187.334 222.8C188.201 222.8 188.974 222.98 189.654 223.34C190.347 223.7 190.887 224.233 191.274 224.94C191.674 225.647 191.874 226.5 191.874 227.5V234H189.614V227.84C189.614 226.853 189.367 226.1 188.874 225.58C188.381 225.047 187.707 224.78 186.854 224.78C186.001 224.78 185.321 225.047 184.814 225.58C184.321 226.1 184.074 226.853 184.074 227.84V234H181.814V227.84C181.814 226.853 181.567 226.1 181.074 225.58C180.581 225.047 179.907 224.78 179.054 224.78C178.201 224.78 177.521 225.047 177.014 225.58C176.521 226.1 176.274 226.853 176.274 227.84V234H173.994V222.98H176.274V224.24C176.647 223.787 177.121 223.433 177.694 223.18C178.267 222.927 178.881 222.8 179.534 222.8C180.414 222.8 181.201 222.987 181.894 223.36C182.587 223.733 183.121 224.273 183.494 224.98C183.827 224.313 184.347 223.787 185.054 223.4C185.761 223 186.521 222.8 187.334 222.8ZM204.875 228.22C204.875 228.633 204.849 229.007 204.795 229.34H196.375C196.442 230.22 196.769 230.927 197.355 231.46C197.942 231.993 198.662 232.26 199.515 232.26C200.742 232.26 201.609 231.747 202.115 230.72H204.575C204.242 231.733 203.635 232.567 202.755 233.22C201.889 233.86 200.809 234.18 199.515 234.18C198.462 234.18 197.515 233.947 196.675 233.48C195.849 233 195.195 232.333 194.715 231.48C194.249 230.613 194.015 229.613 194.015 228.48C194.015 227.347 194.242 226.353 194.695 225.5C195.162 224.633 195.809 223.967 196.635 223.5C197.475 223.033 198.435 222.8 199.515 222.8C200.555 222.8 201.482 223.027 202.295 223.48C203.109 223.933 203.742 224.573 204.195 225.4C204.649 226.213 204.875 227.153 204.875 228.22ZM202.495 227.5C202.482 226.66 202.182 225.987 201.595 225.48C201.009 224.973 200.282 224.72 199.415 224.72C198.629 224.72 197.955 224.973 197.395 225.48C196.835 225.973 196.502 226.647 196.395 227.5H202.495ZM212.679 222.8C213.546 222.8 214.319 222.98 214.999 223.34C215.692 223.7 216.232 224.233 216.619 224.94C217.006 225.647 217.199 226.5 217.199 227.5V234H214.939V227.84C214.939 226.853 214.692 226.1 214.199 225.58C213.706 225.047 213.032 224.78 212.179 224.78C211.326 224.78 210.646 225.047 210.139 225.58C209.646 226.1 209.399 226.853 209.399 227.84V234H207.119V222.98H209.399V224.24C209.772 223.787 210.246 223.433 210.819 223.18C211.406 222.927 212.026 222.8 212.679 222.8ZM222.767 224.84V230.94C222.767 231.353 222.861 231.653 223.047 231.84C223.247 232.013 223.581 232.1 224.047 232.1H225.447V234H223.647C222.621 234 221.834 233.76 221.287 233.28C220.741 232.8 220.467 232.02 220.467 230.94V224.84H219.167V222.98H220.467V220.24H222.767V222.98H225.447V224.84H222.767ZM231.549 234.18C230.682 234.18 229.902 234.027 229.209 233.72C228.529 233.4 227.989 232.973 227.589 232.44C227.189 231.893 226.975 231.287 226.949 230.62H229.309C229.349 231.087 229.569 231.48 229.969 231.8C230.382 232.107 230.895 232.26 231.509 232.26C232.149 232.26 232.642 232.14 232.989 231.9C233.349 231.647 233.529 231.327 233.529 230.94C233.529 230.527 233.329 230.22 232.929 230.02C232.542 229.82 231.922 229.6 231.069 229.36C230.242 229.133 229.569 228.913 229.049 228.7C228.529 228.487 228.075 228.16 227.689 227.72C227.315 227.28 227.129 226.7 227.129 225.98C227.129 225.393 227.302 224.86 227.649 224.38C227.995 223.887 228.489 223.5 229.129 223.22C229.782 222.94 230.529 222.8 231.369 222.8C232.622 222.8 233.629 223.12 234.389 223.76C235.162 224.387 235.575 225.247 235.629 226.34H233.349C233.309 225.847 233.109 225.453 232.749 225.16C232.389 224.867 231.902 224.72 231.289 224.72C230.689 224.72 230.229 224.833 229.909 225.06C229.589 225.287 229.429 225.587 229.429 225.96C229.429 226.253 229.535 226.5 229.749 226.7C229.962 226.9 230.222 227.06 230.529 227.18C230.835 227.287 231.289 227.427 231.889 227.6C232.689 227.813 233.342 228.033 233.849 228.26C234.369 228.473 234.815 228.793 235.189 229.22C235.562 229.647 235.755 230.213 235.769 230.92C235.769 231.547 235.595 232.107 235.249 232.6C234.902 233.093 234.409 233.48 233.769 233.76C233.142 234.04 232.402 234.18 231.549 234.18Z" fill="#535353"/>
<path d="M182.658 167.02C182.658 165.66 182.971 164.44 183.598 163.36C184.238 162.28 185.098 161.44 186.178 160.84C187.271 160.227 188.465 159.92 189.758 159.92C191.238 159.92 192.551 160.287 193.698 161.02C194.858 161.74 195.698 162.767 196.218 164.1H193.478C193.118 163.367 192.618 162.82 191.978 162.46C191.338 162.1 190.598 161.92 189.758 161.92C188.838 161.92 188.018 162.127 187.298 162.54C186.578 162.953 186.011 163.547 185.598 164.32C185.198 165.093 184.998 165.993 184.998 167.02C184.998 168.047 185.198 168.947 185.598 169.72C186.011 170.493 186.578 171.093 187.298 171.52C188.018 171.933 188.838 172.14 189.758 172.14C190.598 172.14 191.338 171.96 191.978 171.6C192.618 171.24 193.118 170.693 193.478 169.96H196.218C195.698 171.293 194.858 172.32 193.698 173.04C192.551 173.76 191.238 174.12 189.758 174.12C188.451 174.12 187.258 173.82 186.178 173.22C185.098 172.607 184.238 171.76 183.598 170.68C182.971 169.6 182.658 168.38 182.658 167.02ZM204.587 162.8C205.427 162.8 206.173 162.98 206.827 163.34C207.493 163.7 208.013 164.233 208.387 164.94C208.773 165.647 208.967 166.5 208.967 167.5V174H206.707V167.84C206.707 166.853 206.46 166.1 205.967 165.58C205.473 165.047 204.8 164.78 203.947 164.78C203.093 164.78 202.413 165.047 201.907 165.58C201.413 166.1 201.167 166.853 201.167 167.84V174H198.887V159.2H201.167V164.26C201.553 163.793 202.04 163.433 202.627 163.18C203.227 162.927 203.88 162.8 204.587 162.8ZM216.655 174.18C215.615 174.18 214.675 173.947 213.835 173.48C212.995 173 212.335 172.333 211.855 171.48C211.375 170.613 211.135 169.613 211.135 168.48C211.135 167.36 211.382 166.367 211.875 165.5C212.368 164.633 213.042 163.967 213.895 163.5C214.748 163.033 215.702 162.8 216.755 162.8C217.808 162.8 218.762 163.033 219.615 163.5C220.468 163.967 221.142 164.633 221.635 165.5C222.128 166.367 222.375 167.36 222.375 168.48C222.375 169.6 222.122 170.593 221.615 171.46C221.108 172.327 220.415 173 219.535 173.48C218.668 173.947 217.708 174.18 216.655 174.18ZM216.655 172.2C217.242 172.2 217.788 172.06 218.295 171.78C218.815 171.5 219.235 171.08 219.555 170.52C219.875 169.96 220.035 169.28 220.035 168.48C220.035 167.68 219.882 167.007 219.575 166.46C219.268 165.9 218.862 165.48 218.355 165.2C217.848 164.92 217.302 164.78 216.715 164.78C216.128 164.78 215.582 164.92 215.075 165.2C214.582 165.48 214.188 165.9 213.895 166.46C213.602 167.007 213.455 167.68 213.455 168.48C213.455 169.667 213.755 170.587 214.355 171.24C214.968 171.88 215.735 172.2 216.655 172.2ZM229.409 174.18C228.369 174.18 227.429 173.947 226.589 173.48C225.749 173 225.089 172.333 224.609 171.48C224.129 170.613 223.889 169.613 223.889 168.48C223.889 167.36 224.136 166.367 224.629 165.5C225.122 164.633 225.796 163.967 226.649 163.5C227.502 163.033 228.456 162.8 229.509 162.8C230.562 162.8 231.516 163.033 232.369 163.5C233.222 163.967 233.896 164.633 234.389 165.5C234.882 166.367 235.129 167.36 235.129 168.48C235.129 169.6 234.876 170.593 234.369 171.46C233.862 172.327 233.169 173 232.289 173.48C231.422 173.947 230.462 174.18 229.409 174.18ZM229.409 172.2C229.996 172.2 230.542 172.06 231.049 171.78C231.569 171.5 231.989 171.08 232.309 170.52C232.629 169.96 232.789 169.28 232.789 168.48C232.789 167.68 232.636 167.007 232.329 166.46C232.022 165.9 231.616 165.48 231.109 165.2C230.602 164.92 230.056 164.78 229.469 164.78C228.882 164.78 228.336 164.92 227.829 165.2C227.336 165.48 226.942 165.9 226.649 166.46C226.356 167.007 226.209 167.68 226.209 168.48C226.209 169.667 226.509 170.587 227.109 171.24C227.722 171.88 228.489 172.2 229.409 172.2ZM241.383 174.18C240.516 174.18 239.736 174.027 239.043 173.72C238.363 173.4 237.823 172.973 237.423 172.44C237.023 171.893 236.809 171.287 236.783 170.62H239.143C239.183 171.087 239.403 171.48 239.803 171.8C240.216 172.107 240.729 172.26 241.343 172.26C241.983 172.26 242.476 172.14 242.823 171.9C243.183 171.647 243.363 171.327 243.363 170.94C243.363 170.527 243.163 170.22 242.763 170.02C242.376 169.82 241.756 169.6 240.903 169.36C240.076 169.133 239.403 168.913 238.883 168.7C238.363 168.487 237.909 168.16 237.523 167.72C237.149 167.28 236.963 166.7 236.963 165.98C236.963 165.393 237.136 164.86 237.483 164.38C237.829 163.887 238.323 163.5 238.963 163.22C239.616 162.94 240.363 162.8 241.203 162.8C242.456 162.8 243.463 163.12 244.223 163.76C244.996 164.387 245.409 165.247 245.463 166.34H243.183C243.143 165.847 242.943 165.453 242.583 165.16C242.223 164.867 241.736 164.72 241.123 164.72C240.523 164.72 240.063 164.833 239.743 165.06C239.423 165.287 239.263 165.587 239.263 165.96C239.263 166.253 239.369 166.5 239.583 166.7C239.796 166.9 240.056 167.06 240.363 167.18C240.669 167.287 241.123 167.427 241.723 167.6C242.523 167.813 243.176 168.033 243.683 168.26C244.203 168.473 244.649 168.793 245.023 169.22C245.396 169.647 245.589 170.213 245.603 170.92C245.603 171.547 245.429 172.107 245.083 172.6C244.736 173.093 244.243 173.48 243.603 173.76C242.976 174.04 242.236 174.18 241.383 174.18ZM258.166 168.22C258.166 168.633 258.14 169.007 258.086 169.34H249.666C249.733 170.22 250.06 170.927 250.646 171.46C251.233 171.993 251.953 172.26 252.806 172.26C254.033 172.26 254.9 171.747 255.406 170.72H257.866C257.533 171.733 256.926 172.567 256.046 173.22C255.18 173.86 254.1 174.18 252.806 174.18C251.753 174.18 250.806 173.947 249.966 173.48C249.14 173 248.486 172.333 248.006 171.48C247.54 170.613 247.306 169.613 247.306 168.48C247.306 167.347 247.533 166.353 247.986 165.5C248.453 164.633 249.1 163.967 249.926 163.5C250.766 163.033 251.726 162.8 252.806 162.8C253.846 162.8 254.773 163.027 255.586 163.48C256.4 163.933 257.033 164.573 257.486 165.4C257.94 166.213 258.166 167.153 258.166 168.22ZM255.786 167.5C255.773 166.66 255.473 165.987 254.886 165.48C254.3 164.973 253.573 164.72 252.706 164.72C251.92 164.72 251.246 164.973 250.686 165.48C250.126 165.973 249.793 166.647 249.686 167.5H255.786ZM270.225 164.84H268.185V174H265.885V164.84H264.585V162.98H265.885V162.2C265.885 160.933 266.219 160.013 266.885 159.44C267.565 158.853 268.625 158.56 270.065 158.56V160.46C269.372 160.46 268.885 160.593 268.605 160.86C268.325 161.113 268.185 161.56 268.185 162.2V162.98H270.225V164.84ZM273.406 161.52C272.993 161.52 272.646 161.38 272.366 161.1C272.086 160.82 271.946 160.473 271.946 160.06C271.946 159.647 272.086 159.3 272.366 159.02C272.646 158.74 272.993 158.6 273.406 158.6C273.806 158.6 274.146 158.74 274.426 159.02C274.706 159.3 274.846 159.647 274.846 160.06C274.846 160.473 274.706 160.82 274.426 161.1C274.146 161.38 273.806 161.52 273.406 161.52ZM274.526 162.98V174H272.246V162.98H274.526ZM279.8 159.2V174H277.52V159.2H279.8ZM292.893 168.22C292.893 168.633 292.866 169.007 292.813 169.34H284.393C284.46 170.22 284.786 170.927 285.373 171.46C285.96 171.993 286.68 172.26 287.533 172.26C288.76 172.26 289.626 171.747 290.133 170.72H292.593C292.26 171.733 291.653 172.567 290.773 173.22C289.906 173.86 288.826 174.18 287.533 174.18C286.48 174.18 285.533 173.947 284.693 173.48C283.866 173 283.213 172.333 282.733 171.48C282.266 170.613 282.033 169.613 282.033 168.48C282.033 167.347 282.26 166.353 282.713 165.5C283.18 164.633 283.826 163.967 284.653 163.5C285.493 163.033 286.453 162.8 287.533 162.8C288.573 162.8 289.5 163.027 290.313 163.48C291.126 163.933 291.76 164.573 292.213 165.4C292.666 166.213 292.893 167.153 292.893 168.22ZM290.513 167.5C290.5 166.66 290.2 165.987 289.613 165.48C289.026 164.973 288.3 164.72 287.433 164.72C286.646 164.72 285.973 164.973 285.413 165.48C284.853 165.973 284.52 166.647 284.413 167.5H290.513Z" fill="#0095FF"/>
</svg>
