<svg width="322" height="322" viewBox="0 0 322 322" fill="none" xmlns="http://www.w3.org/2000/svg">
<rect x="1" y="1" width="320" height="320" rx="24" fill="white"/>
<rect x="1" y="1" width="320" height="320" rx="24" stroke="#0095FF" stroke-linecap="round" stroke-dasharray="10 10"/>
<mask id="mask0_974_35145" style="mask-type:alpha" maskUnits="userSpaceOnUse" x="137" y="95" width="48" height="48">
<rect x="137" y="95" width="48" height="48" fill="#D9D9D9"/>
</mask>
<g mask="url(#mask0_974_35145)">
<path d="M159 127V110.7L153.8 115.9L151 113L161 103L171 113L168.2 115.9L163 110.7V127H159ZM149 135C147.9 135 146.958 134.608 146.175 133.825C145.392 133.042 145 132.1 145 131V125H149V131H173V125H177V131C177 132.1 176.608 133.042 175.825 133.825C175.042 134.608 174.1 135 173 135H149Z" fill="#535353"/>
</g>
<path d="M34.4033 175.1C35.8833 175.1 37.1766 175.387 38.2833 175.96C39.4033 176.52 40.2633 177.333 40.8633 178.4C41.4766 179.453 41.7833 180.687 41.7833 182.1C41.7833 183.513 41.4766 184.74 40.8633 185.78C40.2633 186.82 39.4033 187.62 38.2833 188.18C37.1766 188.727 35.8833 189 34.4033 189H29.8633V175.1H34.4033ZM34.4033 187.14C36.0299 187.14 37.2766 186.7 38.1433 185.82C39.0099 184.94 39.4433 183.7 39.4433 182.1C39.4433 180.487 39.0099 179.227 38.1433 178.32C37.2766 177.413 36.0299 176.96 34.4033 176.96H32.1433V187.14H34.4033ZM46.323 179.58C46.6563 179.02 47.0963 178.587 47.643 178.28C48.203 177.96 48.863 177.8 49.623 177.8V180.16H49.043C48.1496 180.16 47.4696 180.387 47.003 180.84C46.5496 181.293 46.323 182.08 46.323 183.2V189H44.043V177.98H46.323V179.58ZM50.9588 183.44C50.9588 182.333 51.1854 181.353 51.6388 180.5C52.1054 179.647 52.7321 178.987 53.5188 178.52C54.3188 178.04 55.1988 177.8 56.1588 177.8C57.0254 177.8 57.7788 177.973 58.4188 178.32C59.0721 178.653 59.5921 179.073 59.9788 179.58V177.98H62.2788V189H59.9788V187.36C59.5921 187.88 59.0654 188.313 58.3988 188.66C57.7321 189.007 56.9721 189.18 56.1188 189.18C55.1721 189.18 54.3054 188.94 53.5188 188.46C52.7321 187.967 52.1054 187.287 51.6388 186.42C51.1854 185.54 50.9588 184.547 50.9588 183.44ZM59.9788 183.48C59.9788 182.72 59.8188 182.06 59.4988 181.5C59.1921 180.94 58.7854 180.513 58.2788 180.22C57.7721 179.927 57.2254 179.78 56.6388 179.78C56.0521 179.78 55.5054 179.927 54.9988 180.22C54.4921 180.5 54.0788 180.92 53.7588 181.48C53.4521 182.027 53.2988 182.68 53.2988 183.44C53.2988 184.2 53.4521 184.867 53.7588 185.44C54.0788 186.013 54.4921 186.453 54.9988 186.76C55.5188 187.053 56.0654 187.2 56.6388 187.2C57.2254 187.2 57.7721 187.053 58.2788 186.76C58.7854 186.467 59.1921 186.04 59.4988 185.48C59.8188 184.907 59.9788 184.24 59.9788 183.48ZM69.7134 177.8C70.5668 177.8 71.3201 177.973 71.9734 178.32C72.6401 178.653 73.1601 179.073 73.5334 179.58V177.98H75.8334V189.18C75.8334 190.193 75.6201 191.093 75.1934 191.88C74.7668 192.68 74.1468 193.307 73.3334 193.76C72.5334 194.213 71.5734 194.44 70.4534 194.44C68.9601 194.44 67.7201 194.087 66.7334 193.38C65.7468 192.687 65.1868 191.74 65.0534 190.54H67.3134C67.4868 191.113 67.8534 191.573 68.4134 191.92C68.9868 192.28 69.6668 192.46 70.4534 192.46C71.3734 192.46 72.1134 192.18 72.6734 191.62C73.2468 191.06 73.5334 190.247 73.5334 189.18V187.34C73.1468 187.86 72.6201 188.3 71.9534 188.66C71.3001 189.007 70.5534 189.18 69.7134 189.18C68.7534 189.18 67.8734 188.94 67.0734 188.46C66.2868 187.967 65.6601 187.287 65.1934 186.42C64.7401 185.54 64.5134 184.547 64.5134 183.44C64.5134 182.333 64.7401 181.353 65.1934 180.5C65.6601 179.647 66.2868 178.987 67.0734 178.52C67.8734 178.04 68.7534 177.8 69.7134 177.8ZM73.5334 183.48C73.5334 182.72 73.3734 182.06 73.0534 181.5C72.7468 180.94 72.3401 180.513 71.8334 180.22C71.3268 179.927 70.7801 179.78 70.1934 179.78C69.6068 179.78 69.0601 179.927 68.5534 180.22C68.0468 180.5 67.6334 180.92 67.3134 181.48C67.0068 182.027 66.8534 182.68 66.8534 183.44C66.8534 184.2 67.0068 184.867 67.3134 185.44C67.6334 186.013 68.0468 186.453 68.5534 186.76C69.0734 187.053 69.6201 187.2 70.1934 187.2C70.7801 187.2 71.3268 187.053 71.8334 186.76C72.3401 186.467 72.7468 186.04 73.0534 185.48C73.3734 184.907 73.5334 184.24 73.5334 183.48ZM94.7634 189L93.0434 187.28C92.3768 187.947 91.6501 188.447 90.8634 188.78C90.0768 189.1 89.1968 189.26 88.2234 189.26C87.2368 189.26 86.3634 189.087 85.6034 188.74C84.8434 188.393 84.2568 187.9 83.8434 187.26C83.4301 186.607 83.2234 185.853 83.2234 185C83.2234 184.04 83.4968 183.187 84.0434 182.44C84.5901 181.68 85.4034 181.08 86.4834 180.64C86.0968 180.173 85.8234 179.74 85.6634 179.34C85.5034 178.927 85.4234 178.473 85.4234 177.98C85.4234 177.367 85.5768 176.82 85.8834 176.34C86.2034 175.86 86.6568 175.48 87.2434 175.2C87.8301 174.92 88.5101 174.78 89.2834 174.78C90.0701 174.78 90.7368 174.933 91.2834 175.24C91.8434 175.533 92.2568 175.94 92.5234 176.46C92.8034 176.98 92.9168 177.56 92.8634 178.2H90.5834C90.5968 177.707 90.4768 177.327 90.2234 177.06C89.9701 176.78 89.6234 176.64 89.1834 176.64C88.7434 176.64 88.3834 176.773 88.1034 177.04C87.8368 177.293 87.7034 177.607 87.7034 177.98C87.7034 178.34 87.8034 178.7 88.0034 179.06C88.2168 179.407 88.5834 179.86 89.1034 180.42L92.7834 184.08L94.2034 181.74H96.6634L94.8634 184.82L94.3634 185.64L97.7434 189H94.7634ZM88.2234 187.32C89.4768 187.32 90.5834 186.807 91.5434 185.78L87.8634 182.08C86.2901 182.707 85.5034 183.653 85.5034 184.92C85.5034 185.6 85.7568 186.173 86.2634 186.64C86.7701 187.093 87.4234 187.32 88.2234 187.32ZM108.974 175.1C110.454 175.1 111.747 175.387 112.854 175.96C113.974 176.52 114.834 177.333 115.434 178.4C116.047 179.453 116.354 180.687 116.354 182.1C116.354 183.513 116.047 184.74 115.434 185.78C114.834 186.82 113.974 187.62 112.854 188.18C111.747 188.727 110.454 189 108.974 189H104.434V175.1H108.974ZM108.974 187.14C110.6 187.14 111.847 186.7 112.714 185.82C113.58 184.94 114.014 183.7 114.014 182.1C114.014 180.487 113.58 179.227 112.714 178.32C111.847 177.413 110.6 176.96 108.974 176.96H106.714V187.14H108.974ZM120.893 179.58C121.227 179.02 121.667 178.587 122.213 178.28C122.773 177.96 123.433 177.8 124.193 177.8V180.16H123.613C122.72 180.16 122.04 180.387 121.573 180.84C121.12 181.293 120.893 182.08 120.893 183.2V189H118.613V177.98H120.893V179.58ZM131.069 189.18C130.029 189.18 129.089 188.947 128.249 188.48C127.409 188 126.749 187.333 126.269 186.48C125.789 185.613 125.549 184.613 125.549 183.48C125.549 182.36 125.796 181.367 126.289 180.5C126.782 179.633 127.456 178.967 128.309 178.5C129.162 178.033 130.116 177.8 131.169 177.8C132.222 177.8 133.176 178.033 134.029 178.5C134.882 178.967 135.556 179.633 136.049 180.5C136.542 181.367 136.789 182.36 136.789 183.48C136.789 184.6 136.536 185.593 136.029 186.46C135.522 187.327 134.829 188 133.949 188.48C133.082 188.947 132.122 189.18 131.069 189.18ZM131.069 187.2C131.656 187.2 132.202 187.06 132.709 186.78C133.229 186.5 133.649 186.08 133.969 185.52C134.289 184.96 134.449 184.28 134.449 183.48C134.449 182.68 134.296 182.007 133.989 181.46C133.682 180.9 133.276 180.48 132.769 180.2C132.262 179.92 131.716 179.78 131.129 179.78C130.542 179.78 129.996 179.92 129.489 180.2C128.996 180.48 128.602 180.9 128.309 181.46C128.016 182.007 127.869 182.68 127.869 183.48C127.869 184.667 128.169 185.587 128.769 186.24C129.382 186.88 130.149 187.2 131.069 187.2ZM141.323 179.6C141.71 179.093 142.236 178.667 142.903 178.32C143.57 177.973 144.323 177.8 145.163 177.8C146.123 177.8 146.996 178.04 147.783 178.52C148.583 178.987 149.21 179.647 149.663 180.5C150.116 181.353 150.343 182.333 150.343 183.44C150.343 184.547 150.116 185.54 149.663 186.42C149.21 187.287 148.583 187.967 147.783 188.46C146.996 188.94 146.123 189.18 145.163 189.18C144.323 189.18 143.576 189.013 142.923 188.68C142.27 188.333 141.736 187.907 141.323 187.4V194.24H139.043V177.98H141.323V179.6ZM148.023 183.44C148.023 182.68 147.863 182.027 147.543 181.48C147.236 180.92 146.823 180.5 146.303 180.22C145.796 179.927 145.25 179.78 144.663 179.78C144.09 179.78 143.543 179.927 143.023 180.22C142.516 180.513 142.103 180.94 141.783 181.5C141.476 182.06 141.323 182.72 141.323 183.48C141.323 184.24 141.476 184.907 141.783 185.48C142.103 186.04 142.516 186.467 143.023 186.76C143.543 187.053 144.09 187.2 144.663 187.2C145.25 187.2 145.796 187.053 146.303 186.76C146.823 186.453 147.236 186.013 147.543 185.44C147.863 184.867 148.023 184.2 148.023 183.44ZM162.573 189.18C161.533 189.18 160.593 188.947 159.753 188.48C158.913 188 158.253 187.333 157.773 186.48C157.293 185.613 157.053 184.613 157.053 183.48C157.053 182.36 157.3 181.367 157.793 180.5C158.286 179.633 158.96 178.967 159.813 178.5C160.666 178.033 161.62 177.8 162.673 177.8C163.726 177.8 164.68 178.033 165.533 178.5C166.386 178.967 167.06 179.633 167.553 180.5C168.046 181.367 168.293 182.36 168.293 183.48C168.293 184.6 168.04 185.593 167.533 186.46C167.026 187.327 166.333 188 165.453 188.48C164.586 188.947 163.626 189.18 162.573 189.18ZM162.573 187.2C163.16 187.2 163.706 187.06 164.213 186.78C164.733 186.5 165.153 186.08 165.473 185.52C165.793 184.96 165.953 184.28 165.953 183.48C165.953 182.68 165.8 182.007 165.493 181.46C165.186 180.9 164.78 180.48 164.273 180.2C163.766 179.92 163.22 179.78 162.633 179.78C162.046 179.78 161.5 179.92 160.993 180.2C160.5 180.48 160.106 180.9 159.813 181.46C159.52 182.007 159.373 182.68 159.373 183.48C159.373 184.667 159.673 185.587 160.273 186.24C160.886 186.88 161.653 187.2 162.573 187.2ZM172.827 179.58C173.16 179.02 173.6 178.587 174.147 178.28C174.707 177.96 175.367 177.8 176.127 177.8V180.16H175.547C174.654 180.16 173.974 180.387 173.507 180.84C173.054 181.293 172.827 182.08 172.827 183.2V189H170.547V177.98H172.827V179.58ZM48.7928 209.84V215.94C48.7928 216.353 48.8861 216.653 49.0728 216.84C49.2728 217.013 49.6061 217.1 50.0728 217.1H51.4728V219H49.6728C48.6461 219 47.8595 218.76 47.3128 218.28C46.7661 217.8 46.4928 217.02 46.4928 215.94V209.84H45.1928V207.98H46.4928V205.24H48.7928V207.98H51.4728V209.84H48.7928ZM58.3542 219.18C57.3142 219.18 56.3742 218.947 55.5342 218.48C54.6942 218 54.0342 217.333 53.5542 216.48C53.0742 215.613 52.8342 214.613 52.8342 213.48C52.8342 212.36 53.0809 211.367 53.5742 210.5C54.0676 209.633 54.7409 208.967 55.5942 208.5C56.4476 208.033 57.4009 207.8 58.4542 207.8C59.5076 207.8 60.4609 208.033 61.3142 208.5C62.1676 208.967 62.8409 209.633 63.3342 210.5C63.8276 211.367 64.0742 212.36 64.0742 213.48C64.0742 214.6 63.8209 215.593 63.3142 216.46C62.8076 217.327 62.1142 218 61.2342 218.48C60.3676 218.947 59.4076 219.18 58.3542 219.18ZM58.3542 217.2C58.9409 217.2 59.4876 217.06 59.9942 216.78C60.5142 216.5 60.9342 216.08 61.2542 215.52C61.5742 214.96 61.7342 214.28 61.7342 213.48C61.7342 212.68 61.5809 212.007 61.2742 211.46C60.9676 210.9 60.5609 210.48 60.0542 210.2C59.5476 209.92 59.0009 209.78 58.4142 209.78C57.8276 209.78 57.2809 209.92 56.7742 210.2C56.2809 210.48 55.8876 210.9 55.5942 211.46C55.3009 212.007 55.1542 212.68 55.1542 213.48C55.1542 214.667 55.4542 215.587 56.0542 216.24C56.6676 216.88 57.4342 217.2 58.3542 217.2ZM81.5034 207.98V219H79.2234V217.7C78.8634 218.153 78.3901 218.513 77.8034 218.78C77.2301 219.033 76.6168 219.16 75.9634 219.16C75.0968 219.16 74.3168 218.98 73.6234 218.62C72.9434 218.26 72.4034 217.727 72.0034 217.02C71.6168 216.313 71.4234 215.46 71.4234 214.46V207.98H73.6834V214.12C73.6834 215.107 73.9301 215.867 74.4234 216.4C74.9168 216.92 75.5901 217.18 76.4434 217.18C77.2968 217.18 77.9701 216.92 78.4634 216.4C78.9701 215.867 79.2234 215.107 79.2234 214.12V207.98H81.5034ZM86.7917 209.6C87.1784 209.093 87.7051 208.667 88.3717 208.32C89.0384 207.973 89.7917 207.8 90.6317 207.8C91.5917 207.8 92.4651 208.04 93.2517 208.52C94.0517 208.987 94.6784 209.647 95.1317 210.5C95.5851 211.353 95.8117 212.333 95.8117 213.44C95.8117 214.547 95.5851 215.54 95.1317 216.42C94.6784 217.287 94.0517 217.967 93.2517 218.46C92.4651 218.94 91.5917 219.18 90.6317 219.18C89.7917 219.18 89.0451 219.013 88.3917 218.68C87.7384 218.333 87.2051 217.907 86.7917 217.4V224.24H84.5117V207.98H86.7917V209.6ZM93.4917 213.44C93.4917 212.68 93.3317 212.027 93.0117 211.48C92.7051 210.92 92.2917 210.5 91.7717 210.22C91.2651 209.927 90.7184 209.78 90.1317 209.78C89.5584 209.78 89.0117 209.927 88.4917 210.22C87.9851 210.513 87.5717 210.94 87.2517 211.5C86.9451 212.06 86.7917 212.72 86.7917 213.48C86.7917 214.24 86.9451 214.907 87.2517 215.48C87.5717 216.04 87.9851 216.467 88.4917 216.76C89.0117 217.053 89.5584 217.2 90.1317 217.2C90.7184 217.2 91.2651 217.053 91.7717 216.76C92.2917 216.453 92.7051 216.013 93.0117 215.44C93.3317 214.867 93.4917 214.2 93.4917 213.44ZM100.346 204.2V219H98.0664V204.2H100.346ZM108.12 219.18C107.08 219.18 106.14 218.947 105.3 218.48C104.46 218 103.8 217.333 103.32 216.48C102.84 215.613 102.6 214.613 102.6 213.48C102.6 212.36 102.847 211.367 103.34 210.5C103.833 209.633 104.507 208.967 105.36 208.5C106.213 208.033 107.167 207.8 108.22 207.8C109.273 207.8 110.227 208.033 111.08 208.5C111.933 208.967 112.607 209.633 113.1 210.5C113.593 211.367 113.84 212.36 113.84 213.48C113.84 214.6 113.587 215.593 113.08 216.46C112.573 217.327 111.88 218 111 218.48C110.133 218.947 109.173 219.18 108.12 219.18ZM108.12 217.2C108.707 217.2 109.253 217.06 109.76 216.78C110.28 216.5 110.7 216.08 111.02 215.52C111.34 214.96 111.5 214.28 111.5 213.48C111.5 212.68 111.347 212.007 111.04 211.46C110.733 210.9 110.327 210.48 109.82 210.2C109.313 209.92 108.767 209.78 108.18 209.78C107.593 209.78 107.047 209.92 106.54 210.2C106.047 210.48 105.653 210.9 105.36 211.46C105.067 212.007 104.92 212.68 104.92 213.48C104.92 214.667 105.22 215.587 105.82 216.24C106.433 216.88 107.2 217.2 108.12 217.2ZM115.334 213.44C115.334 212.333 115.56 211.353 116.014 210.5C116.48 209.647 117.107 208.987 117.894 208.52C118.694 208.04 119.574 207.8 120.534 207.8C121.4 207.8 122.154 207.973 122.794 208.32C123.447 208.653 123.967 209.073 124.354 209.58V207.98H126.654V219H124.354V217.36C123.967 217.88 123.44 218.313 122.774 218.66C122.107 219.007 121.347 219.18 120.494 219.18C119.547 219.18 118.68 218.94 117.894 218.46C117.107 217.967 116.48 217.287 116.014 216.42C115.56 215.54 115.334 214.547 115.334 213.44ZM124.354 213.48C124.354 212.72 124.194 212.06 123.874 211.5C123.567 210.94 123.16 210.513 122.654 210.22C122.147 209.927 121.6 209.78 121.014 209.78C120.427 209.78 119.88 209.927 119.374 210.22C118.867 210.5 118.454 210.92 118.134 211.48C117.827 212.027 117.674 212.68 117.674 213.44C117.674 214.2 117.827 214.867 118.134 215.44C118.454 216.013 118.867 216.453 119.374 216.76C119.894 217.053 120.44 217.2 121.014 217.2C121.6 217.2 122.147 217.053 122.654 216.76C123.16 216.467 123.567 216.04 123.874 215.48C124.194 214.907 124.354 214.24 124.354 213.48ZM128.888 213.44C128.888 212.333 129.115 211.353 129.568 210.5C130.035 209.647 130.662 208.987 131.448 208.52C132.248 208.04 133.135 207.8 134.108 207.8C134.828 207.8 135.535 207.96 136.228 208.28C136.935 208.587 137.495 209 137.908 209.52V204.2H140.208V219H137.908V217.34C137.535 217.873 137.015 218.313 136.348 218.66C135.695 219.007 134.942 219.18 134.088 219.18C133.128 219.18 132.248 218.94 131.448 218.46C130.662 217.967 130.035 217.287 129.568 216.42C129.115 215.54 128.888 214.547 128.888 213.44ZM137.908 213.48C137.908 212.72 137.748 212.06 137.428 211.5C137.122 210.94 136.715 210.513 136.208 210.22C135.702 209.927 135.155 209.78 134.568 209.78C133.982 209.78 133.435 209.927 132.928 210.22C132.422 210.5 132.008 210.92 131.688 211.48C131.382 212.027 131.228 212.68 131.228 213.44C131.228 214.2 131.382 214.867 131.688 215.44C132.008 216.013 132.422 216.453 132.928 216.76C133.448 217.053 133.995 217.2 134.568 217.2C135.155 217.2 135.702 217.053 136.208 216.76C136.715 216.467 137.122 216.04 137.428 215.48C137.748 214.907 137.908 214.24 137.908 213.48ZM150.678 205.1V219H148.398V205.1H150.678ZM167.012 207.8C167.879 207.8 168.652 207.98 169.332 208.34C170.025 208.7 170.565 209.233 170.952 209.94C171.352 210.647 171.552 211.5 171.552 212.5V219H169.292V212.84C169.292 211.853 169.045 211.1 168.552 210.58C168.059 210.047 167.385 209.78 166.532 209.78C165.679 209.78 164.999 210.047 164.492 210.58C163.999 211.1 163.752 211.853 163.752 212.84V219H161.492V212.84C161.492 211.853 161.245 211.1 160.752 210.58C160.259 210.047 159.585 209.78 158.732 209.78C157.879 209.78 157.199 210.047 156.692 210.58C156.199 211.1 155.952 211.853 155.952 212.84V219H153.672V207.98H155.952V209.24C156.325 208.787 156.799 208.433 157.372 208.18C157.945 207.927 158.559 207.8 159.212 207.8C160.092 207.8 160.879 207.987 161.572 208.36C162.265 208.733 162.799 209.273 163.172 209.98C163.505 209.313 164.025 208.787 164.732 208.4C165.439 208 166.199 207.8 167.012 207.8ZM173.693 213.44C173.693 212.333 173.92 211.353 174.373 210.5C174.84 209.647 175.466 208.987 176.253 208.52C177.053 208.04 177.933 207.8 178.893 207.8C179.76 207.8 180.513 207.973 181.153 208.32C181.806 208.653 182.326 209.073 182.713 209.58V207.98H185.013V219H182.713V217.36C182.326 217.88 181.8 218.313 181.133 218.66C180.466 219.007 179.706 219.18 178.853 219.18C177.906 219.18 177.04 218.94 176.253 218.46C175.466 217.967 174.84 217.287 174.373 216.42C173.92 215.54 173.693 214.547 173.693 213.44ZM182.713 213.48C182.713 212.72 182.553 212.06 182.233 211.5C181.926 210.94 181.52 210.513 181.013 210.22C180.506 209.927 179.96 209.78 179.373 209.78C178.786 209.78 178.24 209.927 177.733 210.22C177.226 210.5 176.813 210.92 176.493 211.48C176.186 212.027 176.033 212.68 176.033 213.44C176.033 214.2 176.186 214.867 176.493 215.44C176.813 216.013 177.226 216.453 177.733 216.76C178.253 217.053 178.8 217.2 179.373 217.2C179.96 217.2 180.506 217.053 181.013 216.76C181.52 216.467 181.926 216.04 182.233 215.48C182.553 214.907 182.713 214.24 182.713 213.48ZM192.448 207.8C193.301 207.8 194.054 207.973 194.708 208.32C195.374 208.653 195.894 209.073 196.268 209.58V207.98H198.568V219.18C198.568 220.193 198.354 221.093 197.928 221.88C197.501 222.68 196.881 223.307 196.068 223.76C195.268 224.213 194.308 224.44 193.188 224.44C191.694 224.44 190.454 224.087 189.468 223.38C188.481 222.687 187.921 221.74 187.788 220.54H190.048C190.221 221.113 190.588 221.573 191.148 221.92C191.721 222.28 192.401 222.46 193.188 222.46C194.108 222.46 194.848 222.18 195.408 221.62C195.981 221.06 196.268 220.247 196.268 219.18V217.34C195.881 217.86 195.354 218.3 194.688 218.66C194.034 219.007 193.288 219.18 192.448 219.18C191.488 219.18 190.608 218.94 189.808 218.46C189.021 217.967 188.394 217.287 187.928 216.42C187.474 215.54 187.248 214.547 187.248 213.44C187.248 212.333 187.474 211.353 187.928 210.5C188.394 209.647 189.021 208.987 189.808 208.52C190.608 208.04 191.488 207.8 192.448 207.8ZM196.268 213.48C196.268 212.72 196.108 212.06 195.788 211.5C195.481 210.94 195.074 210.513 194.568 210.22C194.061 209.927 193.514 209.78 192.928 209.78C192.341 209.78 191.794 209.927 191.288 210.22C190.781 210.5 190.368 210.92 190.048 211.48C189.741 212.027 189.588 212.68 189.588 213.44C189.588 214.2 189.741 214.867 190.048 215.44C190.368 216.013 190.781 216.453 191.288 216.76C191.808 217.053 192.354 217.2 192.928 217.2C193.514 217.2 194.061 217.053 194.568 216.76C195.074 216.467 195.481 216.04 195.788 215.48C196.108 214.907 196.268 214.24 196.268 213.48ZM211.663 213.22C211.663 213.633 211.636 214.007 211.583 214.34H203.163C203.229 215.22 203.556 215.927 204.143 216.46C204.729 216.993 205.449 217.26 206.303 217.26C207.529 217.26 208.396 216.747 208.903 215.72H211.362C211.029 216.733 210.423 217.567 209.543 218.22C208.676 218.86 207.596 219.18 206.303 219.18C205.249 219.18 204.303 218.947 203.463 218.48C202.636 218 201.983 217.333 201.503 216.48C201.036 215.613 200.803 214.613 200.803 213.48C200.803 212.347 201.029 211.353 201.483 210.5C201.949 209.633 202.596 208.967 203.423 208.5C204.263 208.033 205.223 207.8 206.303 207.8C207.343 207.8 208.269 208.027 209.083 208.48C209.896 208.933 210.529 209.573 210.983 210.4C211.436 211.213 211.663 212.153 211.663 213.22ZM209.283 212.5C209.269 211.66 208.969 210.987 208.383 210.48C207.796 209.973 207.069 209.72 206.203 209.72C205.416 209.72 204.743 209.973 204.183 210.48C203.623 210.973 203.289 211.647 203.183 212.5H209.283ZM218.342 212.02C218.342 210.66 218.655 209.44 219.282 208.36C219.922 207.28 220.782 206.44 221.862 205.84C222.955 205.227 224.148 204.92 225.442 204.92C226.922 204.92 228.235 205.287 229.382 206.02C230.542 206.74 231.382 207.767 231.902 209.1H229.162C228.802 208.367 228.302 207.82 227.662 207.46C227.022 207.1 226.282 206.92 225.442 206.92C224.522 206.92 223.702 207.127 222.982 207.54C222.262 207.953 221.695 208.547 221.282 209.32C220.882 210.093 220.682 210.993 220.682 212.02C220.682 213.047 220.882 213.947 221.282 214.72C221.695 215.493 222.262 216.093 222.982 216.52C223.702 216.933 224.522 217.14 225.442 217.14C226.282 217.14 227.022 216.96 227.662 216.6C228.302 216.24 228.802 215.693 229.162 214.96H231.902C231.382 216.293 230.542 217.32 229.382 218.04C228.235 218.76 226.922 219.12 225.442 219.12C224.135 219.12 222.942 218.82 221.862 218.22C220.782 217.607 219.922 216.76 219.282 215.68C218.655 214.6 218.342 213.38 218.342 212.02ZM239.35 219.18C238.31 219.18 237.37 218.947 236.53 218.48C235.69 218 235.03 217.333 234.55 216.48C234.07 215.613 233.83 214.613 233.83 213.48C233.83 212.36 234.077 211.367 234.57 210.5C235.064 209.633 235.737 208.967 236.59 208.5C237.444 208.033 238.397 207.8 239.45 207.8C240.504 207.8 241.457 208.033 242.31 208.5C243.164 208.967 243.837 209.633 244.33 210.5C244.824 211.367 245.07 212.36 245.07 213.48C245.07 214.6 244.817 215.593 244.31 216.46C243.804 217.327 243.11 218 242.23 218.48C241.364 218.947 240.404 219.18 239.35 219.18ZM239.35 217.2C239.937 217.2 240.484 217.06 240.99 216.78C241.51 216.5 241.93 216.08 242.25 215.52C242.57 214.96 242.73 214.28 242.73 213.48C242.73 212.68 242.577 212.007 242.27 211.46C241.964 210.9 241.557 210.48 241.05 210.2C240.544 209.92 239.997 209.78 239.41 209.78C238.824 209.78 238.277 209.92 237.77 210.2C237.277 210.48 236.884 210.9 236.59 211.46C236.297 212.007 236.15 212.68 236.15 213.48C236.15 214.667 236.45 215.587 237.05 216.24C237.664 216.88 238.43 217.2 239.35 217.2ZM251.584 216.96L254.704 207.98H257.124L252.924 219H250.204L246.024 207.98H248.464L251.584 216.96ZM268.948 213.22C268.948 213.633 268.921 214.007 268.868 214.34H260.448C260.514 215.22 260.841 215.927 261.428 216.46C262.014 216.993 262.734 217.26 263.588 217.26C264.814 217.26 265.681 216.747 266.188 215.72H268.648C268.314 216.733 267.708 217.567 266.828 218.22C265.961 218.86 264.881 219.18 263.588 219.18C262.534 219.18 261.588 218.947 260.748 218.48C259.921 218 259.268 217.333 258.788 216.48C258.321 215.613 258.088 214.613 258.088 213.48C258.088 212.347 258.314 211.353 258.768 210.5C259.234 209.633 259.881 208.967 260.708 208.5C261.548 208.033 262.508 207.8 263.588 207.8C264.628 207.8 265.554 208.027 266.368 208.48C267.181 208.933 267.814 209.573 268.268 210.4C268.721 211.213 268.948 212.153 268.948 213.22ZM266.568 212.5C266.554 211.66 266.254 210.987 265.668 210.48C265.081 209.973 264.354 209.72 263.488 209.72C262.701 209.72 262.028 209.973 261.468 210.48C260.908 210.973 260.574 211.647 260.468 212.5H266.568ZM273.471 209.58C273.805 209.02 274.245 208.587 274.791 208.28C275.351 207.96 276.011 207.8 276.771 207.8V210.16H276.191C275.298 210.16 274.618 210.387 274.151 210.84C273.698 211.293 273.471 212.08 273.471 213.2V219H271.191V207.98H273.471V209.58Z" fill="#535353"/>
<path d="M182.658 182.02C182.658 180.66 182.971 179.44 183.598 178.36C184.238 177.28 185.098 176.44 186.178 175.84C187.271 175.227 188.465 174.92 189.758 174.92C191.238 174.92 192.551 175.287 193.698 176.02C194.858 176.74 195.698 177.767 196.218 179.1H193.478C193.118 178.367 192.618 177.82 191.978 177.46C191.338 177.1 190.598 176.92 189.758 176.92C188.838 176.92 188.018 177.127 187.298 177.54C186.578 177.953 186.011 178.547 185.598 179.32C185.198 180.093 184.998 180.993 184.998 182.02C184.998 183.047 185.198 183.947 185.598 184.72C186.011 185.493 186.578 186.093 187.298 186.52C188.018 186.933 188.838 187.14 189.758 187.14C190.598 187.14 191.338 186.96 191.978 186.6C192.618 186.24 193.118 185.693 193.478 184.96H196.218C195.698 186.293 194.858 187.32 193.698 188.04C192.551 188.76 191.238 189.12 189.758 189.12C188.451 189.12 187.258 188.82 186.178 188.22C185.098 187.607 184.238 186.76 183.598 185.68C182.971 184.6 182.658 183.38 182.658 182.02ZM204.587 177.8C205.427 177.8 206.173 177.98 206.827 178.34C207.493 178.7 208.013 179.233 208.387 179.94C208.773 180.647 208.967 181.5 208.967 182.5V189H206.707V182.84C206.707 181.853 206.46 181.1 205.967 180.58C205.473 180.047 204.8 179.78 203.947 179.78C203.093 179.78 202.413 180.047 201.907 180.58C201.413 181.1 201.167 181.853 201.167 182.84V189H198.887V174.2H201.167V179.26C201.553 178.793 202.04 178.433 202.627 178.18C203.227 177.927 203.88 177.8 204.587 177.8ZM216.655 189.18C215.615 189.18 214.675 188.947 213.835 188.48C212.995 188 212.335 187.333 211.855 186.48C211.375 185.613 211.135 184.613 211.135 183.48C211.135 182.36 211.382 181.367 211.875 180.5C212.368 179.633 213.042 178.967 213.895 178.5C214.748 178.033 215.702 177.8 216.755 177.8C217.808 177.8 218.762 178.033 219.615 178.5C220.468 178.967 221.142 179.633 221.635 180.5C222.128 181.367 222.375 182.36 222.375 183.48C222.375 184.6 222.122 185.593 221.615 186.46C221.108 187.327 220.415 188 219.535 188.48C218.668 188.947 217.708 189.18 216.655 189.18ZM216.655 187.2C217.242 187.2 217.788 187.06 218.295 186.78C218.815 186.5 219.235 186.08 219.555 185.52C219.875 184.96 220.035 184.28 220.035 183.48C220.035 182.68 219.882 182.007 219.575 181.46C219.268 180.9 218.862 180.48 218.355 180.2C217.848 179.92 217.302 179.78 216.715 179.78C216.128 179.78 215.582 179.92 215.075 180.2C214.582 180.48 214.188 180.9 213.895 181.46C213.602 182.007 213.455 182.68 213.455 183.48C213.455 184.667 213.755 185.587 214.355 186.24C214.968 186.88 215.735 187.2 216.655 187.2ZM229.409 189.18C228.369 189.18 227.429 188.947 226.589 188.48C225.749 188 225.089 187.333 224.609 186.48C224.129 185.613 223.889 184.613 223.889 183.48C223.889 182.36 224.136 181.367 224.629 180.5C225.122 179.633 225.796 178.967 226.649 178.5C227.502 178.033 228.456 177.8 229.509 177.8C230.562 177.8 231.516 178.033 232.369 178.5C233.222 178.967 233.896 179.633 234.389 180.5C234.882 181.367 235.129 182.36 235.129 183.48C235.129 184.6 234.876 185.593 234.369 186.46C233.862 187.327 233.169 188 232.289 188.48C231.422 188.947 230.462 189.18 229.409 189.18ZM229.409 187.2C229.996 187.2 230.542 187.06 231.049 186.78C231.569 186.5 231.989 186.08 232.309 185.52C232.629 184.96 232.789 184.28 232.789 183.48C232.789 182.68 232.636 182.007 232.329 181.46C232.022 180.9 231.616 180.48 231.109 180.2C230.602 179.92 230.056 179.78 229.469 179.78C228.882 179.78 228.336 179.92 227.829 180.2C227.336 180.48 226.942 180.9 226.649 181.46C226.356 182.007 226.209 182.68 226.209 183.48C226.209 184.667 226.509 185.587 227.109 186.24C227.722 186.88 228.489 187.2 229.409 187.2ZM241.383 189.18C240.516 189.18 239.736 189.027 239.043 188.72C238.363 188.4 237.823 187.973 237.423 187.44C237.023 186.893 236.809 186.287 236.783 185.62H239.143C239.183 186.087 239.403 186.48 239.803 186.8C240.216 187.107 240.729 187.26 241.343 187.26C241.983 187.26 242.476 187.14 242.823 186.9C243.183 186.647 243.363 186.327 243.363 185.94C243.363 185.527 243.163 185.22 242.763 185.02C242.376 184.82 241.756 184.6 240.903 184.36C240.076 184.133 239.403 183.913 238.883 183.7C238.363 183.487 237.909 183.16 237.523 182.72C237.149 182.28 236.963 181.7 236.963 180.98C236.963 180.393 237.136 179.86 237.483 179.38C237.829 178.887 238.323 178.5 238.963 178.22C239.616 177.94 240.363 177.8 241.203 177.8C242.456 177.8 243.463 178.12 244.223 178.76C244.996 179.387 245.409 180.247 245.463 181.34H243.183C243.143 180.847 242.943 180.453 242.583 180.16C242.223 179.867 241.736 179.72 241.123 179.72C240.523 179.72 240.063 179.833 239.743 180.06C239.423 180.287 239.263 180.587 239.263 180.96C239.263 181.253 239.369 181.5 239.583 181.7C239.796 181.9 240.056 182.06 240.363 182.18C240.669 182.287 241.123 182.427 241.723 182.6C242.523 182.813 243.176 183.033 243.683 183.26C244.203 183.473 244.649 183.793 245.023 184.22C245.396 184.647 245.589 185.213 245.603 185.92C245.603 186.547 245.429 187.107 245.083 187.6C244.736 188.093 244.243 188.48 243.603 188.76C242.976 189.04 242.236 189.18 241.383 189.18ZM258.166 183.22C258.166 183.633 258.14 184.007 258.086 184.34H249.666C249.733 185.22 250.06 185.927 250.646 186.46C251.233 186.993 251.953 187.26 252.806 187.26C254.033 187.26 254.9 186.747 255.406 185.72H257.866C257.533 186.733 256.926 187.567 256.046 188.22C255.18 188.86 254.1 189.18 252.806 189.18C251.753 189.18 250.806 188.947 249.966 188.48C249.14 188 248.486 187.333 248.006 186.48C247.54 185.613 247.306 184.613 247.306 183.48C247.306 182.347 247.533 181.353 247.986 180.5C248.453 179.633 249.1 178.967 249.926 178.5C250.766 178.033 251.726 177.8 252.806 177.8C253.846 177.8 254.773 178.027 255.586 178.48C256.4 178.933 257.033 179.573 257.486 180.4C257.94 181.213 258.166 182.153 258.166 183.22ZM255.786 182.5C255.773 181.66 255.473 180.987 254.886 180.48C254.3 179.973 253.573 179.72 252.706 179.72C251.92 179.72 251.246 179.973 250.686 180.48C250.126 180.973 249.793 181.647 249.686 182.5H255.786ZM270.225 179.84H268.185V189H265.885V179.84H264.585V177.98H265.885V177.2C265.885 175.933 266.219 175.013 266.885 174.44C267.565 173.853 268.625 173.56 270.065 173.56V175.46C269.372 175.46 268.885 175.593 268.605 175.86C268.325 176.113 268.185 176.56 268.185 177.2V177.98H270.225V179.84ZM273.406 176.52C272.993 176.52 272.646 176.38 272.366 176.1C272.086 175.82 271.946 175.473 271.946 175.06C271.946 174.647 272.086 174.3 272.366 174.02C272.646 173.74 272.993 173.6 273.406 173.6C273.806 173.6 274.146 173.74 274.426 174.02C274.706 174.3 274.846 174.647 274.846 175.06C274.846 175.473 274.706 175.82 274.426 176.1C274.146 176.38 273.806 176.52 273.406 176.52ZM274.526 177.98V189H272.246V177.98H274.526ZM279.8 174.2V189H277.52V174.2H279.8ZM292.893 183.22C292.893 183.633 292.866 184.007 292.813 184.34H284.393C284.46 185.22 284.786 185.927 285.373 186.46C285.96 186.993 286.68 187.26 287.533 187.26C288.76 187.26 289.626 186.747 290.133 185.72H292.593C292.26 186.733 291.653 187.567 290.773 188.22C289.906 188.86 288.826 189.18 287.533 189.18C286.48 189.18 285.533 188.947 284.693 188.48C283.866 188 283.213 187.333 282.733 186.48C282.266 185.613 282.033 184.613 282.033 183.48C282.033 182.347 282.26 181.353 282.713 180.5C283.18 179.633 283.826 178.967 284.653 178.5C285.493 178.033 286.453 177.8 287.533 177.8C288.573 177.8 289.5 178.027 290.313 178.48C291.126 178.933 291.76 179.573 292.213 180.4C292.666 181.213 292.893 182.153 292.893 183.22ZM290.513 182.5C290.5 181.66 290.2 180.987 289.613 180.48C289.026 179.973 288.3 179.72 287.433 179.72C286.646 179.72 285.973 179.973 285.413 180.48C284.853 180.973 284.52 181.647 284.413 182.5H290.513Z" fill="#0095FF"/>
</svg>
