<svg width="1081" height="322" viewBox="0 0 1081 322" fill="none" xmlns="http://www.w3.org/2000/svg">
<rect x="1" y="1" width="1079" height="320" rx="24" fill="white"/>
<rect x="1" y="1" width="1079" height="320" rx="24" stroke="#0095FF" stroke-linecap="round" stroke-dasharray="10 10"/>
<mask id="mask0_974_35161" style="mask-type:alpha" maskUnits="userSpaceOnUse" x="516" y="95" width="49" height="49">
<rect x="516.5" y="95.5" width="48" height="48" fill="#D9D9D9"/>
</mask>
<g mask="url(#mask0_974_35161)">
<path d="M538.5 127.5V111.2L533.3 116.4L530.5 113.5L540.5 103.5L550.5 113.5L547.7 116.4L542.5 111.2V127.5H538.5ZM528.5 135.5C527.4 135.5 526.458 135.108 525.675 134.325C524.892 133.542 524.5 132.6 524.5 131.5V125.5H528.5V131.5H552.5V125.5H556.5V131.5C556.5 132.6 556.108 133.542 555.325 134.325C554.542 135.108 553.6 135.5 552.5 135.5H528.5Z" fill="#535353"/>
</g>
<path d="M253.278 175.6C254.758 175.6 256.052 175.887 257.158 176.46C258.278 177.02 259.138 177.833 259.738 178.9C260.352 179.953 260.658 181.187 260.658 182.6C260.658 184.013 260.352 185.24 259.738 186.28C259.138 187.32 258.278 188.12 257.158 188.68C256.052 189.227 254.758 189.5 253.278 189.5H248.738V175.6H253.278ZM253.278 187.64C254.905 187.64 256.152 187.2 257.018 186.32C257.885 185.44 258.318 184.2 258.318 182.6C258.318 180.987 257.885 179.727 257.018 178.82C256.152 177.913 254.905 177.46 253.278 177.46H251.018V187.64H253.278ZM265.198 180.08C265.531 179.52 265.971 179.087 266.518 178.78C267.078 178.46 267.738 178.3 268.498 178.3V180.66H267.918C267.025 180.66 266.345 180.887 265.878 181.34C265.425 181.793 265.198 182.58 265.198 183.7V189.5H262.918V178.48H265.198V180.08ZM269.834 183.94C269.834 182.833 270.06 181.853 270.514 181C270.98 180.147 271.607 179.487 272.394 179.02C273.194 178.54 274.074 178.3 275.034 178.3C275.9 178.3 276.654 178.473 277.294 178.82C277.947 179.153 278.467 179.573 278.854 180.08V178.48H281.154V189.5H278.854V187.86C278.467 188.38 277.94 188.813 277.274 189.16C276.607 189.507 275.847 189.68 274.994 189.68C274.047 189.68 273.18 189.44 272.394 188.96C271.607 188.467 270.98 187.787 270.514 186.92C270.06 186.04 269.834 185.047 269.834 183.94ZM278.854 183.98C278.854 183.22 278.694 182.56 278.374 182C278.067 181.44 277.66 181.013 277.154 180.72C276.647 180.427 276.1 180.28 275.514 180.28C274.927 180.28 274.38 180.427 273.874 180.72C273.367 181 272.954 181.42 272.634 181.98C272.327 182.527 272.174 183.18 272.174 183.94C272.174 184.7 272.327 185.367 272.634 185.94C272.954 186.513 273.367 186.953 273.874 187.26C274.394 187.553 274.94 187.7 275.514 187.7C276.1 187.7 276.647 187.553 277.154 187.26C277.66 186.967 278.067 186.54 278.374 185.98C278.694 185.407 278.854 184.74 278.854 183.98ZM288.588 178.3C289.442 178.3 290.195 178.473 290.848 178.82C291.515 179.153 292.035 179.573 292.408 180.08V178.48H294.708V189.68C294.708 190.693 294.495 191.593 294.068 192.38C293.642 193.18 293.022 193.807 292.208 194.26C291.408 194.713 290.448 194.94 289.328 194.94C287.835 194.94 286.595 194.587 285.608 193.88C284.622 193.187 284.062 192.24 283.928 191.04H286.188C286.362 191.613 286.728 192.073 287.288 192.42C287.862 192.78 288.542 192.96 289.328 192.96C290.248 192.96 290.988 192.68 291.548 192.12C292.122 191.56 292.408 190.747 292.408 189.68V187.84C292.022 188.36 291.495 188.8 290.828 189.16C290.175 189.507 289.428 189.68 288.588 189.68C287.628 189.68 286.748 189.44 285.948 188.96C285.162 188.467 284.535 187.787 284.068 186.92C283.615 186.04 283.388 185.047 283.388 183.94C283.388 182.833 283.615 181.853 284.068 181C284.535 180.147 285.162 179.487 285.948 179.02C286.748 178.54 287.628 178.3 288.588 178.3ZM292.408 183.98C292.408 183.22 292.248 182.56 291.928 182C291.622 181.44 291.215 181.013 290.708 180.72C290.202 180.427 289.655 180.28 289.068 180.28C288.482 180.28 287.935 180.427 287.428 180.72C286.922 181 286.508 181.42 286.188 181.98C285.882 182.527 285.728 183.18 285.728 183.94C285.728 184.7 285.882 185.367 286.188 185.94C286.508 186.513 286.922 186.953 287.428 187.26C287.948 187.553 288.495 187.7 289.068 187.7C289.655 187.7 290.202 187.553 290.708 187.26C291.215 186.967 291.622 186.54 291.928 185.98C292.248 185.407 292.408 184.74 292.408 183.98ZM313.638 189.5L311.918 187.78C311.252 188.447 310.525 188.947 309.738 189.28C308.952 189.6 308.072 189.76 307.098 189.76C306.112 189.76 305.238 189.587 304.478 189.24C303.718 188.893 303.132 188.4 302.718 187.76C302.305 187.107 302.098 186.353 302.098 185.5C302.098 184.54 302.372 183.687 302.918 182.94C303.465 182.18 304.278 181.58 305.358 181.14C304.972 180.673 304.698 180.24 304.538 179.84C304.378 179.427 304.298 178.973 304.298 178.48C304.298 177.867 304.452 177.32 304.758 176.84C305.078 176.36 305.532 175.98 306.118 175.7C306.705 175.42 307.385 175.28 308.158 175.28C308.945 175.28 309.612 175.433 310.158 175.74C310.718 176.033 311.132 176.44 311.398 176.96C311.678 177.48 311.792 178.06 311.738 178.7H309.458C309.472 178.207 309.352 177.827 309.098 177.56C308.845 177.28 308.498 177.14 308.058 177.14C307.618 177.14 307.258 177.273 306.978 177.54C306.712 177.793 306.578 178.107 306.578 178.48C306.578 178.84 306.678 179.2 306.878 179.56C307.092 179.907 307.458 180.36 307.978 180.92L311.658 184.58L313.078 182.24H315.538L313.738 185.32L313.238 186.14L316.618 189.5H313.638ZM307.098 187.82C308.352 187.82 309.458 187.307 310.418 186.28L306.738 182.58C305.165 183.207 304.378 184.153 304.378 185.42C304.378 186.1 304.632 186.673 305.138 187.14C305.645 187.593 306.298 187.82 307.098 187.82ZM327.849 175.6C329.329 175.6 330.622 175.887 331.729 176.46C332.849 177.02 333.709 177.833 334.309 178.9C334.922 179.953 335.229 181.187 335.229 182.6C335.229 184.013 334.922 185.24 334.309 186.28C333.709 187.32 332.849 188.12 331.729 188.68C330.622 189.227 329.329 189.5 327.849 189.5H323.309V175.6H327.849ZM327.849 187.64C329.475 187.64 330.722 187.2 331.589 186.32C332.455 185.44 332.889 184.2 332.889 182.6C332.889 180.987 332.455 179.727 331.589 178.82C330.722 177.913 329.475 177.46 327.849 177.46H325.589V187.64H327.849ZM339.768 180.08C340.102 179.52 340.542 179.087 341.088 178.78C341.648 178.46 342.308 178.3 343.068 178.3V180.66H342.488C341.595 180.66 340.915 180.887 340.448 181.34C339.995 181.793 339.768 182.58 339.768 183.7V189.5H337.488V178.48H339.768V180.08ZM349.944 189.68C348.904 189.68 347.964 189.447 347.124 188.98C346.284 188.5 345.624 187.833 345.144 186.98C344.664 186.113 344.424 185.113 344.424 183.98C344.424 182.86 344.671 181.867 345.164 181C345.657 180.133 346.331 179.467 347.184 179C348.037 178.533 348.991 178.3 350.044 178.3C351.097 178.3 352.051 178.533 352.904 179C353.757 179.467 354.431 180.133 354.924 181C355.417 181.867 355.664 182.86 355.664 183.98C355.664 185.1 355.411 186.093 354.904 186.96C354.397 187.827 353.704 188.5 352.824 188.98C351.957 189.447 350.997 189.68 349.944 189.68ZM349.944 187.7C350.531 187.7 351.077 187.56 351.584 187.28C352.104 187 352.524 186.58 352.844 186.02C353.164 185.46 353.324 184.78 353.324 183.98C353.324 183.18 353.171 182.507 352.864 181.96C352.557 181.4 352.151 180.98 351.644 180.7C351.137 180.42 350.591 180.28 350.004 180.28C349.417 180.28 348.871 180.42 348.364 180.7C347.871 180.98 347.477 181.4 347.184 181.96C346.891 182.507 346.744 183.18 346.744 183.98C346.744 185.167 347.044 186.087 347.644 186.74C348.257 187.38 349.024 187.7 349.944 187.7ZM360.198 180.1C360.585 179.593 361.111 179.167 361.778 178.82C362.445 178.473 363.198 178.3 364.038 178.3C364.998 178.3 365.871 178.54 366.658 179.02C367.458 179.487 368.085 180.147 368.538 181C368.991 181.853 369.218 182.833 369.218 183.94C369.218 185.047 368.991 186.04 368.538 186.92C368.085 187.787 367.458 188.467 366.658 188.96C365.871 189.44 364.998 189.68 364.038 189.68C363.198 189.68 362.451 189.513 361.798 189.18C361.145 188.833 360.611 188.407 360.198 187.9V194.74H357.918V178.48H360.198V180.1ZM366.898 183.94C366.898 183.18 366.738 182.527 366.418 181.98C366.111 181.42 365.698 181 365.178 180.72C364.671 180.427 364.125 180.28 363.538 180.28C362.965 180.28 362.418 180.427 361.898 180.72C361.391 181.013 360.978 181.44 360.658 182C360.351 182.56 360.198 183.22 360.198 183.98C360.198 184.74 360.351 185.407 360.658 185.98C360.978 186.54 361.391 186.967 361.898 187.26C362.418 187.553 362.965 187.7 363.538 187.7C364.125 187.7 364.671 187.553 365.178 187.26C365.698 186.953 366.111 186.513 366.418 185.94C366.738 185.367 366.898 184.7 366.898 183.94ZM381.448 189.68C380.408 189.68 379.468 189.447 378.628 188.98C377.788 188.5 377.128 187.833 376.648 186.98C376.168 186.113 375.928 185.113 375.928 183.98C375.928 182.86 376.175 181.867 376.668 181C377.161 180.133 377.835 179.467 378.688 179C379.541 178.533 380.495 178.3 381.548 178.3C382.601 178.3 383.555 178.533 384.408 179C385.261 179.467 385.935 180.133 386.428 181C386.921 181.867 387.168 182.86 387.168 183.98C387.168 185.1 386.915 186.093 386.408 186.96C385.901 187.827 385.208 188.5 384.328 188.98C383.461 189.447 382.501 189.68 381.448 189.68ZM381.448 187.7C382.035 187.7 382.581 187.56 383.088 187.28C383.608 187 384.028 186.58 384.348 186.02C384.668 185.46 384.828 184.78 384.828 183.98C384.828 183.18 384.675 182.507 384.368 181.96C384.061 181.4 383.655 180.98 383.148 180.7C382.641 180.42 382.095 180.28 381.508 180.28C380.921 180.28 380.375 180.42 379.868 180.7C379.375 180.98 378.981 181.4 378.688 181.96C378.395 182.507 378.248 183.18 378.248 183.98C378.248 185.167 378.548 186.087 379.148 186.74C379.761 187.38 380.528 187.7 381.448 187.7ZM391.702 180.08C392.035 179.52 392.475 179.087 393.022 178.78C393.582 178.46 394.242 178.3 395.002 178.3V180.66H394.422C393.529 180.66 392.849 180.887 392.382 181.34C391.929 181.793 391.702 182.58 391.702 183.7V189.5H389.422V178.48H391.702V180.08ZM521.867 180.34V186.44C521.867 186.853 521.96 187.153 522.147 187.34C522.347 187.513 522.68 187.6 523.147 187.6H524.547V189.5H522.747C521.72 189.5 520.934 189.26 520.387 188.78C519.84 188.3 519.567 187.52 519.567 186.44V180.34H518.267V178.48H519.567V175.74H521.867V178.48H524.547V180.34H521.867ZM531.428 189.68C530.388 189.68 529.448 189.447 528.608 188.98C527.768 188.5 527.108 187.833 526.628 186.98C526.148 186.113 525.908 185.113 525.908 183.98C525.908 182.86 526.155 181.867 526.648 181C527.142 180.133 527.815 179.467 528.668 179C529.522 178.533 530.475 178.3 531.528 178.3C532.582 178.3 533.535 178.533 534.388 179C535.242 179.467 535.915 180.133 536.408 181C536.902 181.867 537.148 182.86 537.148 183.98C537.148 185.1 536.895 186.093 536.388 186.96C535.882 187.827 535.188 188.5 534.308 188.98C533.442 189.447 532.482 189.68 531.428 189.68ZM531.428 187.7C532.015 187.7 532.562 187.56 533.068 187.28C533.588 187 534.008 186.58 534.328 186.02C534.648 185.46 534.808 184.78 534.808 183.98C534.808 183.18 534.655 182.507 534.348 181.96C534.042 181.4 533.635 180.98 533.128 180.7C532.622 180.42 532.075 180.28 531.488 180.28C530.902 180.28 530.355 180.42 529.848 180.7C529.355 180.98 528.962 181.4 528.668 181.96C528.375 182.507 528.228 183.18 528.228 183.98C528.228 185.167 528.528 186.087 529.128 186.74C529.742 187.38 530.508 187.7 531.428 187.7ZM554.578 178.48V189.5H552.298V188.2C551.938 188.653 551.464 189.013 550.878 189.28C550.304 189.533 549.691 189.66 549.038 189.66C548.171 189.66 547.391 189.48 546.698 189.12C546.018 188.76 545.478 188.227 545.078 187.52C544.691 186.813 544.498 185.96 544.498 184.96V178.48H546.758V184.62C546.758 185.607 547.004 186.367 547.498 186.9C547.991 187.42 548.664 187.68 549.518 187.68C550.371 187.68 551.044 187.42 551.538 186.9C552.044 186.367 552.298 185.607 552.298 184.62V178.48H554.578ZM559.866 180.1C560.253 179.593 560.779 179.167 561.446 178.82C562.113 178.473 562.866 178.3 563.706 178.3C564.666 178.3 565.539 178.54 566.326 179.02C567.126 179.487 567.753 180.147 568.206 181C568.659 181.853 568.886 182.833 568.886 183.94C568.886 185.047 568.659 186.04 568.206 186.92C567.753 187.787 567.126 188.467 566.326 188.96C565.539 189.44 564.666 189.68 563.706 189.68C562.866 189.68 562.119 189.513 561.466 189.18C560.813 188.833 560.279 188.407 559.866 187.9V194.74H557.586V178.48H559.866V180.1ZM566.566 183.94C566.566 183.18 566.406 182.527 566.086 181.98C565.779 181.42 565.366 181 564.846 180.72C564.339 180.427 563.793 180.28 563.206 180.28C562.633 180.28 562.086 180.427 561.566 180.72C561.059 181.013 560.646 181.44 560.326 182C560.019 182.56 559.866 183.22 559.866 183.98C559.866 184.74 560.019 185.407 560.326 185.98C560.646 186.54 561.059 186.967 561.566 187.26C562.086 187.553 562.633 187.7 563.206 187.7C563.793 187.7 564.339 187.553 564.846 187.26C565.366 186.953 565.779 186.513 566.086 185.94C566.406 185.367 566.566 184.7 566.566 183.94ZM573.421 174.7V189.5H571.141V174.7H573.421ZM581.194 189.68C580.154 189.68 579.214 189.447 578.374 188.98C577.534 188.5 576.874 187.833 576.394 186.98C575.914 186.113 575.674 185.113 575.674 183.98C575.674 182.86 575.921 181.867 576.414 181C576.907 180.133 577.581 179.467 578.434 179C579.287 178.533 580.241 178.3 581.294 178.3C582.347 178.3 583.301 178.533 584.154 179C585.007 179.467 585.681 180.133 586.174 181C586.667 181.867 586.914 182.86 586.914 183.98C586.914 185.1 586.661 186.093 586.154 186.96C585.647 187.827 584.954 188.5 584.074 188.98C583.207 189.447 582.247 189.68 581.194 189.68ZM581.194 187.7C581.781 187.7 582.327 187.56 582.834 187.28C583.354 187 583.774 186.58 584.094 186.02C584.414 185.46 584.574 184.78 584.574 183.98C584.574 183.18 584.421 182.507 584.114 181.96C583.807 181.4 583.401 180.98 582.894 180.7C582.387 180.42 581.841 180.28 581.254 180.28C580.667 180.28 580.121 180.42 579.614 180.7C579.121 180.98 578.727 181.4 578.434 181.96C578.141 182.507 577.994 183.18 577.994 183.98C577.994 185.167 578.294 186.087 578.894 186.74C579.507 187.38 580.274 187.7 581.194 187.7ZM588.408 183.94C588.408 182.833 588.635 181.853 589.088 181C589.555 180.147 590.181 179.487 590.968 179.02C591.768 178.54 592.648 178.3 593.608 178.3C594.475 178.3 595.228 178.473 595.868 178.82C596.521 179.153 597.041 179.573 597.428 180.08V178.48H599.728V189.5H597.428V187.86C597.041 188.38 596.515 188.813 595.848 189.16C595.181 189.507 594.421 189.68 593.568 189.68C592.621 189.68 591.755 189.44 590.968 188.96C590.181 188.467 589.555 187.787 589.088 186.92C588.635 186.04 588.408 185.047 588.408 183.94ZM597.428 183.98C597.428 183.22 597.268 182.56 596.948 182C596.641 181.44 596.235 181.013 595.728 180.72C595.221 180.427 594.675 180.28 594.088 180.28C593.501 180.28 592.955 180.427 592.448 180.72C591.941 181 591.528 181.42 591.208 181.98C590.901 182.527 590.748 183.18 590.748 183.94C590.748 184.7 590.901 185.367 591.208 185.94C591.528 186.513 591.941 186.953 592.448 187.26C592.968 187.553 593.515 187.7 594.088 187.7C594.675 187.7 595.221 187.553 595.728 187.26C596.235 186.967 596.641 186.54 596.948 185.98C597.268 185.407 597.428 184.74 597.428 183.98ZM601.963 183.94C601.963 182.833 602.189 181.853 602.643 181C603.109 180.147 603.736 179.487 604.523 179.02C605.323 178.54 606.209 178.3 607.183 178.3C607.903 178.3 608.609 178.46 609.303 178.78C610.009 179.087 610.569 179.5 610.983 180.02V174.7H613.283V189.5H610.983V187.84C610.609 188.373 610.089 188.813 609.423 189.16C608.769 189.507 608.016 189.68 607.163 189.68C606.203 189.68 605.323 189.44 604.523 188.96C603.736 188.467 603.109 187.787 602.643 186.92C602.189 186.04 601.963 185.047 601.963 183.94ZM610.983 183.98C610.983 183.22 610.823 182.56 610.503 182C610.196 181.44 609.789 181.013 609.283 180.72C608.776 180.427 608.229 180.28 607.643 180.28C607.056 180.28 606.509 180.427 606.003 180.72C605.496 181 605.083 181.42 604.763 181.98C604.456 182.527 604.303 183.18 604.303 183.94C604.303 184.7 604.456 185.367 604.763 185.94C605.083 186.513 605.496 186.953 606.003 187.26C606.523 187.553 607.069 187.7 607.643 187.7C608.229 187.7 608.776 187.553 609.283 187.26C609.789 186.967 610.196 186.54 610.503 185.98C610.823 185.407 610.983 184.74 610.983 183.98ZM636.113 175.6V189.5H633.833V179.98L629.593 189.5H628.013L623.753 179.98V189.5H621.473V175.6H623.933L628.813 186.5L633.673 175.6H636.113ZM649.209 183.72C649.209 184.133 649.183 184.507 649.129 184.84H640.709C640.776 185.72 641.103 186.427 641.689 186.96C642.276 187.493 642.996 187.76 643.849 187.76C645.076 187.76 645.943 187.247 646.449 186.22H648.909C648.576 187.233 647.969 188.067 647.089 188.72C646.223 189.36 645.143 189.68 643.849 189.68C642.796 189.68 641.849 189.447 641.009 188.98C640.183 188.5 639.529 187.833 639.049 186.98C638.583 186.113 638.349 185.113 638.349 183.98C638.349 182.847 638.576 181.853 639.029 181C639.496 180.133 640.143 179.467 640.969 179C641.809 178.533 642.769 178.3 643.849 178.3C644.889 178.3 645.816 178.527 646.629 178.98C647.443 179.433 648.076 180.073 648.529 180.9C648.983 181.713 649.209 182.653 649.209 183.72ZM646.829 183C646.816 182.16 646.516 181.487 645.929 180.98C645.343 180.473 644.616 180.22 643.749 180.22C642.963 180.22 642.289 180.473 641.729 180.98C641.169 181.473 640.836 182.147 640.729 183H646.829ZM650.693 183.94C650.693 182.833 650.92 181.853 651.373 181C651.84 180.147 652.466 179.487 653.253 179.02C654.053 178.54 654.933 178.3 655.893 178.3C656.76 178.3 657.513 178.473 658.153 178.82C658.806 179.153 659.326 179.573 659.713 180.08V178.48H662.013V189.5H659.713V187.86C659.326 188.38 658.8 188.813 658.133 189.16C657.466 189.507 656.706 189.68 655.853 189.68C654.906 189.68 654.04 189.44 653.253 188.96C652.466 188.467 651.84 187.787 651.373 186.92C650.92 186.04 650.693 185.047 650.693 183.94ZM659.713 183.98C659.713 183.22 659.553 182.56 659.233 182C658.926 181.44 658.52 181.013 658.013 180.72C657.506 180.427 656.96 180.28 656.373 180.28C655.786 180.28 655.24 180.427 654.733 180.72C654.226 181 653.813 181.42 653.493 181.98C653.186 182.527 653.033 183.18 653.033 183.94C653.033 184.7 653.186 185.367 653.493 185.94C653.813 186.513 654.226 186.953 654.733 187.26C655.253 187.553 655.8 187.7 656.373 187.7C656.96 187.7 657.506 187.553 658.013 187.26C658.52 186.967 658.926 186.54 659.233 185.98C659.553 185.407 659.713 184.74 659.713 183.98ZM669.008 189.68C668.141 189.68 667.361 189.527 666.668 189.22C665.988 188.9 665.448 188.473 665.048 187.94C664.648 187.393 664.434 186.787 664.408 186.12H666.768C666.808 186.587 667.028 186.98 667.428 187.3C667.841 187.607 668.354 187.76 668.968 187.76C669.608 187.76 670.101 187.64 670.448 187.4C670.808 187.147 670.988 186.827 670.988 186.44C670.988 186.027 670.788 185.72 670.388 185.52C670.001 185.32 669.381 185.1 668.528 184.86C667.701 184.633 667.028 184.413 666.508 184.2C665.988 183.987 665.534 183.66 665.148 183.22C664.774 182.78 664.588 182.2 664.588 181.48C664.588 180.893 664.761 180.36 665.108 179.88C665.454 179.387 665.948 179 666.588 178.72C667.241 178.44 667.988 178.3 668.828 178.3C670.081 178.3 671.088 178.62 671.848 179.26C672.621 179.887 673.034 180.747 673.088 181.84H670.808C670.768 181.347 670.568 180.953 670.208 180.66C669.848 180.367 669.361 180.22 668.748 180.22C668.148 180.22 667.688 180.333 667.368 180.56C667.048 180.787 666.888 181.087 666.888 181.46C666.888 181.753 666.994 182 667.208 182.2C667.421 182.4 667.681 182.56 667.988 182.68C668.294 182.787 668.748 182.927 669.348 183.1C670.148 183.313 670.801 183.533 671.308 183.76C671.828 183.973 672.274 184.293 672.648 184.72C673.021 185.147 673.214 185.713 673.228 186.42C673.228 187.047 673.054 187.607 672.708 188.1C672.361 188.593 671.868 188.98 671.228 189.26C670.601 189.54 669.861 189.68 669.008 189.68ZM685.671 178.48V189.5H683.391V188.2C683.031 188.653 682.558 189.013 681.971 189.28C681.398 189.533 680.785 189.66 680.131 189.66C679.265 189.66 678.485 189.48 677.791 189.12C677.111 188.76 676.571 188.227 676.171 187.52C675.785 186.813 675.591 185.96 675.591 184.96V178.48H677.851V184.62C677.851 185.607 678.098 186.367 678.591 186.9C679.085 187.42 679.758 187.68 680.611 187.68C681.465 187.68 682.138 187.42 682.631 186.9C683.138 186.367 683.391 185.607 683.391 184.62V178.48H685.671ZM690.96 180.08C691.293 179.52 691.733 179.087 692.28 178.78C692.84 178.46 693.5 178.3 694.26 178.3V180.66H693.68C692.786 180.66 692.106 180.887 691.64 181.34C691.186 181.793 690.96 182.58 690.96 183.7V189.5H688.68V178.48H690.96V180.08ZM706.455 183.72C706.455 184.133 706.429 184.507 706.375 184.84H697.955C698.022 185.72 698.349 186.427 698.935 186.96C699.522 187.493 700.242 187.76 701.095 187.76C702.322 187.76 703.189 187.247 703.695 186.22H706.155C705.822 187.233 705.215 188.067 704.335 188.72C703.469 189.36 702.389 189.68 701.095 189.68C700.042 189.68 699.095 189.447 698.255 188.98C697.429 188.5 696.775 187.833 696.295 186.98C695.829 186.113 695.595 185.113 695.595 183.98C695.595 182.847 695.822 181.853 696.275 181C696.742 180.133 697.389 179.467 698.215 179C699.055 178.533 700.015 178.3 701.095 178.3C702.135 178.3 703.062 178.527 703.875 178.98C704.689 179.433 705.322 180.073 705.775 180.9C706.229 181.713 706.455 182.653 706.455 183.72ZM704.075 183C704.062 182.16 703.762 181.487 703.175 180.98C702.589 180.473 701.862 180.22 700.995 180.22C700.209 180.22 699.535 180.473 698.975 180.98C698.415 181.473 698.082 182.147 697.975 183H704.075ZM722.039 178.3C722.906 178.3 723.679 178.48 724.359 178.84C725.053 179.2 725.593 179.733 725.979 180.44C726.379 181.147 726.579 182 726.579 183V189.5H724.319V183.34C724.319 182.353 724.073 181.6 723.579 181.08C723.086 180.547 722.413 180.28 721.559 180.28C720.706 180.28 720.026 180.547 719.519 181.08C719.026 181.6 718.779 182.353 718.779 183.34V189.5H716.519V183.34C716.519 182.353 716.273 181.6 715.779 181.08C715.286 180.547 714.613 180.28 713.759 180.28C712.906 180.28 712.226 180.547 711.719 181.08C711.226 181.6 710.979 182.353 710.979 183.34V189.5H708.699V178.48H710.979V179.74C711.353 179.287 711.826 178.933 712.399 178.68C712.973 178.427 713.586 178.3 714.239 178.3C715.119 178.3 715.906 178.487 716.599 178.86C717.293 179.233 717.826 179.773 718.199 180.48C718.533 179.813 719.053 179.287 719.759 178.9C720.466 178.5 721.226 178.3 722.039 178.3ZM739.58 183.72C739.58 184.133 739.554 184.507 739.5 184.84H731.08C731.147 185.72 731.474 186.427 732.06 186.96C732.647 187.493 733.367 187.76 734.22 187.76C735.447 187.76 736.314 187.247 736.82 186.22H739.28C738.947 187.233 738.34 188.067 737.46 188.72C736.594 189.36 735.514 189.68 734.22 189.68C733.167 189.68 732.22 189.447 731.38 188.98C730.554 188.5 729.9 187.833 729.42 186.98C728.954 186.113 728.72 185.113 728.72 183.98C728.72 182.847 728.947 181.853 729.4 181C729.867 180.133 730.514 179.467 731.34 179C732.18 178.533 733.14 178.3 734.22 178.3C735.26 178.3 736.187 178.527 737 178.98C737.814 179.433 738.447 180.073 738.9 180.9C739.354 181.713 739.58 182.653 739.58 183.72ZM737.2 183C737.187 182.16 736.887 181.487 736.3 180.98C735.714 180.473 734.987 180.22 734.12 180.22C733.334 180.22 732.66 180.473 732.1 180.98C731.54 181.473 731.207 182.147 731.1 183H737.2ZM747.384 178.3C748.251 178.3 749.024 178.48 749.704 178.84C750.398 179.2 750.938 179.733 751.324 180.44C751.711 181.147 751.904 182 751.904 183V189.5H749.644V183.34C749.644 182.353 749.398 181.6 748.904 181.08C748.411 180.547 747.738 180.28 746.884 180.28C746.031 180.28 745.351 180.547 744.844 181.08C744.351 181.6 744.104 182.353 744.104 183.34V189.5H741.824V178.48H744.104V179.74C744.478 179.287 744.951 178.933 745.524 178.68C746.111 178.427 746.731 178.3 747.384 178.3ZM757.473 180.34V186.44C757.473 186.853 757.566 187.153 757.753 187.34C757.953 187.513 758.286 187.6 758.753 187.6H760.153V189.5H758.353C757.326 189.5 756.539 189.26 755.993 188.78C755.446 188.3 755.173 187.52 755.173 186.44V180.34H753.873V178.48H755.173V175.74H757.473V178.48H760.153V180.34H757.473ZM766.254 189.68C765.387 189.68 764.607 189.527 763.914 189.22C763.234 188.9 762.694 188.473 762.294 187.94C761.894 187.393 761.681 186.787 761.654 186.12H764.014C764.054 186.587 764.274 186.98 764.674 187.3C765.087 187.607 765.601 187.76 766.214 187.76C766.854 187.76 767.347 187.64 767.694 187.4C768.054 187.147 768.234 186.827 768.234 186.44C768.234 186.027 768.034 185.72 767.634 185.52C767.247 185.32 766.627 185.1 765.774 184.86C764.947 184.633 764.274 184.413 763.754 184.2C763.234 183.987 762.781 183.66 762.394 183.22C762.021 182.78 761.834 182.2 761.834 181.48C761.834 180.893 762.007 180.36 762.354 179.88C762.701 179.387 763.194 179 763.834 178.72C764.487 178.44 765.234 178.3 766.074 178.3C767.327 178.3 768.334 178.62 769.094 179.26C769.867 179.887 770.281 180.747 770.334 181.84H768.054C768.014 181.347 767.814 180.953 767.454 180.66C767.094 180.367 766.607 180.22 765.994 180.22C765.394 180.22 764.934 180.333 764.614 180.56C764.294 180.787 764.134 181.087 764.134 181.46C764.134 181.753 764.241 182 764.454 182.2C764.667 182.4 764.927 182.56 765.234 182.68C765.541 182.787 765.994 182.927 766.594 183.1C767.394 183.313 768.047 183.533 768.554 183.76C769.074 183.973 769.521 184.293 769.894 184.72C770.267 185.147 770.461 185.713 770.474 186.42C770.474 187.047 770.301 187.607 769.954 188.1C769.607 188.593 769.114 188.98 768.474 189.26C767.847 189.54 767.107 189.68 766.254 189.68ZM777.373 182.52C777.373 181.16 777.686 179.94 778.313 178.86C778.953 177.78 779.813 176.94 780.893 176.34C781.986 175.727 783.179 175.42 784.473 175.42C785.953 175.42 787.266 175.787 788.413 176.52C789.573 177.24 790.413 178.267 790.933 179.6H788.193C787.833 178.867 787.333 178.32 786.693 177.96C786.053 177.6 785.313 177.42 784.473 177.42C783.553 177.42 782.733 177.627 782.013 178.04C781.293 178.453 780.726 179.047 780.313 179.82C779.913 180.593 779.713 181.493 779.713 182.52C779.713 183.547 779.913 184.447 780.313 185.22C780.726 185.993 781.293 186.593 782.013 187.02C782.733 187.433 783.553 187.64 784.473 187.64C785.313 187.64 786.053 187.46 786.693 187.1C787.333 186.74 787.833 186.193 788.193 185.46H790.933C790.413 186.793 789.573 187.82 788.413 188.54C787.266 189.26 785.953 189.62 784.473 189.62C783.166 189.62 781.973 189.32 780.893 188.72C779.813 188.107 778.953 187.26 778.313 186.18C777.686 185.1 777.373 183.88 777.373 182.52ZM799.302 178.3C800.142 178.3 800.888 178.48 801.542 178.84C802.208 179.2 802.728 179.733 803.102 180.44C803.488 181.147 803.682 182 803.682 183V189.5H801.422V183.34C801.422 182.353 801.175 181.6 800.682 181.08C800.188 180.547 799.515 180.28 798.662 180.28C797.808 180.28 797.128 180.547 796.622 181.08C796.128 181.6 795.882 182.353 795.882 183.34V189.5H793.602V174.7H795.882V179.76C796.268 179.293 796.755 178.933 797.342 178.68C797.942 178.427 798.595 178.3 799.302 178.3ZM805.83 183.94C805.83 182.833 806.057 181.853 806.51 181C806.977 180.147 807.603 179.487 808.39 179.02C809.19 178.54 810.07 178.3 811.03 178.3C811.897 178.3 812.65 178.473 813.29 178.82C813.943 179.153 814.463 179.573 814.85 180.08V178.48H817.15V189.5H814.85V187.86C814.463 188.38 813.937 188.813 813.27 189.16C812.603 189.507 811.843 189.68 810.99 189.68C810.043 189.68 809.177 189.44 808.39 188.96C807.603 188.467 806.977 187.787 806.51 186.92C806.057 186.04 805.83 185.047 805.83 183.94ZM814.85 183.98C814.85 183.22 814.69 182.56 814.37 182C814.063 181.44 813.657 181.013 813.15 180.72C812.643 180.427 812.097 180.28 811.51 180.28C810.923 180.28 810.377 180.427 809.87 180.72C809.363 181 808.95 181.42 808.63 181.98C808.323 182.527 808.17 183.18 808.17 183.94C808.17 184.7 808.323 185.367 808.63 185.94C808.95 186.513 809.363 186.953 809.87 187.26C810.39 187.553 810.937 187.7 811.51 187.7C812.097 187.7 812.643 187.553 813.15 187.26C813.657 186.967 814.063 186.54 814.37 185.98C814.69 185.407 814.85 184.74 814.85 183.98ZM822.425 180.08C822.758 179.52 823.198 179.087 823.745 178.78C824.305 178.46 824.965 178.3 825.725 178.3V180.66H825.145C824.251 180.66 823.571 180.887 823.105 181.34C822.651 181.793 822.425 182.58 822.425 183.7V189.5H820.145V178.48H822.425V180.08ZM830.48 180.34V186.44C830.48 186.853 830.574 187.153 830.76 187.34C830.96 187.513 831.294 187.6 831.76 187.6H833.16V189.5H831.36C830.334 189.5 829.547 189.26 829 188.78C828.454 188.3 828.18 187.52 828.18 186.44V180.34H826.88V178.48H828.18V175.74H830.48V178.48H833.16V180.34H830.48Z" fill="#535353"/>
<path d="M401.533 182.52C401.533 181.16 401.846 179.94 402.473 178.86C403.113 177.78 403.973 176.94 405.053 176.34C406.146 175.727 407.34 175.42 408.633 175.42C410.113 175.42 411.426 175.787 412.573 176.52C413.733 177.24 414.573 178.267 415.093 179.6H412.353C411.993 178.867 411.493 178.32 410.853 177.96C410.213 177.6 409.473 177.42 408.633 177.42C407.713 177.42 406.893 177.627 406.173 178.04C405.453 178.453 404.886 179.047 404.473 179.82C404.073 180.593 403.873 181.493 403.873 182.52C403.873 183.547 404.073 184.447 404.473 185.22C404.886 185.993 405.453 186.593 406.173 187.02C406.893 187.433 407.713 187.64 408.633 187.64C409.473 187.64 410.213 187.46 410.853 187.1C411.493 186.74 411.993 186.193 412.353 185.46H415.093C414.573 186.793 413.733 187.82 412.573 188.54C411.426 189.26 410.113 189.62 408.633 189.62C407.326 189.62 406.133 189.32 405.053 188.72C403.973 188.107 403.113 187.26 402.473 186.18C401.846 185.1 401.533 183.88 401.533 182.52ZM423.462 178.3C424.302 178.3 425.048 178.48 425.702 178.84C426.368 179.2 426.888 179.733 427.262 180.44C427.648 181.147 427.842 182 427.842 183V189.5H425.582V183.34C425.582 182.353 425.335 181.6 424.842 181.08C424.348 180.547 423.675 180.28 422.822 180.28C421.968 180.28 421.288 180.547 420.782 181.08C420.288 181.6 420.042 182.353 420.042 183.34V189.5H417.762V174.7H420.042V179.76C420.428 179.293 420.915 178.933 421.502 178.68C422.102 178.427 422.755 178.3 423.462 178.3ZM435.53 189.68C434.49 189.68 433.55 189.447 432.71 188.98C431.87 188.5 431.21 187.833 430.73 186.98C430.25 186.113 430.01 185.113 430.01 183.98C430.01 182.86 430.257 181.867 430.75 181C431.243 180.133 431.917 179.467 432.77 179C433.623 178.533 434.577 178.3 435.63 178.3C436.683 178.3 437.637 178.533 438.49 179C439.343 179.467 440.017 180.133 440.51 181C441.003 181.867 441.25 182.86 441.25 183.98C441.25 185.1 440.997 186.093 440.49 186.96C439.983 187.827 439.29 188.5 438.41 188.98C437.543 189.447 436.583 189.68 435.53 189.68ZM435.53 187.7C436.117 187.7 436.663 187.56 437.17 187.28C437.69 187 438.11 186.58 438.43 186.02C438.75 185.46 438.91 184.78 438.91 183.98C438.91 183.18 438.757 182.507 438.45 181.96C438.143 181.4 437.737 180.98 437.23 180.7C436.723 180.42 436.177 180.28 435.59 180.28C435.003 180.28 434.457 180.42 433.95 180.7C433.457 180.98 433.063 181.4 432.77 181.96C432.477 182.507 432.33 183.18 432.33 183.98C432.33 185.167 432.63 186.087 433.23 186.74C433.843 187.38 434.61 187.7 435.53 187.7ZM448.284 189.68C447.244 189.68 446.304 189.447 445.464 188.98C444.624 188.5 443.964 187.833 443.484 186.98C443.004 186.113 442.764 185.113 442.764 183.98C442.764 182.86 443.011 181.867 443.504 181C443.997 180.133 444.671 179.467 445.524 179C446.377 178.533 447.331 178.3 448.384 178.3C449.437 178.3 450.391 178.533 451.244 179C452.097 179.467 452.771 180.133 453.264 181C453.757 181.867 454.004 182.86 454.004 183.98C454.004 185.1 453.751 186.093 453.244 186.96C452.737 187.827 452.044 188.5 451.164 188.98C450.297 189.447 449.337 189.68 448.284 189.68ZM448.284 187.7C448.871 187.7 449.417 187.56 449.924 187.28C450.444 187 450.864 186.58 451.184 186.02C451.504 185.46 451.664 184.78 451.664 183.98C451.664 183.18 451.511 182.507 451.204 181.96C450.897 181.4 450.491 180.98 449.984 180.7C449.477 180.42 448.931 180.28 448.344 180.28C447.757 180.28 447.211 180.42 446.704 180.7C446.211 180.98 445.817 181.4 445.524 181.96C445.231 182.507 445.084 183.18 445.084 183.98C445.084 185.167 445.384 186.087 445.984 186.74C446.597 187.38 447.364 187.7 448.284 187.7ZM460.258 189.68C459.391 189.68 458.611 189.527 457.918 189.22C457.238 188.9 456.698 188.473 456.298 187.94C455.898 187.393 455.684 186.787 455.658 186.12H458.018C458.058 186.587 458.278 186.98 458.678 187.3C459.091 187.607 459.604 187.76 460.218 187.76C460.858 187.76 461.351 187.64 461.698 187.4C462.058 187.147 462.238 186.827 462.238 186.44C462.238 186.027 462.038 185.72 461.638 185.52C461.251 185.32 460.631 185.1 459.778 184.86C458.951 184.633 458.278 184.413 457.758 184.2C457.238 183.987 456.784 183.66 456.398 183.22C456.024 182.78 455.838 182.2 455.838 181.48C455.838 180.893 456.011 180.36 456.358 179.88C456.704 179.387 457.198 179 457.838 178.72C458.491 178.44 459.238 178.3 460.078 178.3C461.331 178.3 462.338 178.62 463.098 179.26C463.871 179.887 464.284 180.747 464.338 181.84H462.058C462.018 181.347 461.818 180.953 461.458 180.66C461.098 180.367 460.611 180.22 459.998 180.22C459.398 180.22 458.938 180.333 458.618 180.56C458.298 180.787 458.138 181.087 458.138 181.46C458.138 181.753 458.244 182 458.458 182.2C458.671 182.4 458.931 182.56 459.238 182.68C459.544 182.787 459.998 182.927 460.598 183.1C461.398 183.313 462.051 183.533 462.558 183.76C463.078 183.973 463.524 184.293 463.898 184.72C464.271 185.147 464.464 185.713 464.478 186.42C464.478 187.047 464.304 187.607 463.958 188.1C463.611 188.593 463.118 188.98 462.478 189.26C461.851 189.54 461.111 189.68 460.258 189.68ZM477.041 183.72C477.041 184.133 477.015 184.507 476.961 184.84H468.541C468.608 185.72 468.935 186.427 469.521 186.96C470.108 187.493 470.828 187.76 471.681 187.76C472.908 187.76 473.775 187.247 474.281 186.22H476.741C476.408 187.233 475.801 188.067 474.921 188.72C474.055 189.36 472.975 189.68 471.681 189.68C470.628 189.68 469.681 189.447 468.841 188.98C468.015 188.5 467.361 187.833 466.881 186.98C466.415 186.113 466.181 185.113 466.181 183.98C466.181 182.847 466.408 181.853 466.861 181C467.328 180.133 467.975 179.467 468.801 179C469.641 178.533 470.601 178.3 471.681 178.3C472.721 178.3 473.648 178.527 474.461 178.98C475.275 179.433 475.908 180.073 476.361 180.9C476.815 181.713 477.041 182.653 477.041 183.72ZM474.661 183C474.648 182.16 474.348 181.487 473.761 180.98C473.175 180.473 472.448 180.22 471.581 180.22C470.795 180.22 470.121 180.473 469.561 180.98C469.001 181.473 468.668 182.147 468.561 183H474.661ZM489.1 180.34H487.06V189.5H484.76V180.34H483.46V178.48H484.76V177.7C484.76 176.433 485.094 175.513 485.76 174.94C486.44 174.353 487.5 174.06 488.94 174.06V175.96C488.247 175.96 487.76 176.093 487.48 176.36C487.2 176.613 487.06 177.06 487.06 177.7V178.48H489.1V180.34ZM492.281 177.02C491.868 177.02 491.521 176.88 491.241 176.6C490.961 176.32 490.821 175.973 490.821 175.56C490.821 175.147 490.961 174.8 491.241 174.52C491.521 174.24 491.868 174.1 492.281 174.1C492.681 174.1 493.021 174.24 493.301 174.52C493.581 174.8 493.721 175.147 493.721 175.56C493.721 175.973 493.581 176.32 493.301 176.6C493.021 176.88 492.681 177.02 492.281 177.02ZM493.401 178.48V189.5H491.121V178.48H493.401ZM498.675 174.7V189.5H496.395V174.7H498.675ZM511.768 183.72C511.768 184.133 511.741 184.507 511.688 184.84H503.268C503.335 185.72 503.661 186.427 504.248 186.96C504.835 187.493 505.555 187.76 506.408 187.76C507.635 187.76 508.501 187.247 509.008 186.22H511.468C511.135 187.233 510.528 188.067 509.648 188.72C508.781 189.36 507.701 189.68 506.408 189.68C505.355 189.68 504.408 189.447 503.568 188.98C502.741 188.5 502.088 187.833 501.608 186.98C501.141 186.113 500.908 185.113 500.908 183.98C500.908 182.847 501.135 181.853 501.588 181C502.055 180.133 502.701 179.467 503.528 179C504.368 178.533 505.328 178.3 506.408 178.3C507.448 178.3 508.375 178.527 509.188 178.98C510.001 179.433 510.635 180.073 511.088 180.9C511.541 181.713 511.768 182.653 511.768 183.72ZM509.388 183C509.375 182.16 509.075 181.487 508.488 180.98C507.901 180.473 507.175 180.22 506.308 180.22C505.521 180.22 504.848 180.473 504.288 180.98C503.728 181.473 503.395 182.147 503.288 183H509.388Z" fill="#0095FF"/>
<path d="M505.746 213.668C505.746 214.163 505.629 214.629 505.396 215.068C505.162 215.507 504.789 215.866 504.276 216.146C503.762 216.417 503.104 216.552 502.302 216.552H500.538V220.5H498.942V210.77H502.302C503.048 210.77 503.678 210.901 504.192 211.162C504.714 211.414 505.102 211.759 505.354 212.198C505.615 212.637 505.746 213.127 505.746 213.668ZM502.302 215.25C502.908 215.25 503.361 215.115 503.66 214.844C503.958 214.564 504.108 214.172 504.108 213.668C504.108 212.604 503.506 212.072 502.302 212.072H500.538V215.25H502.302ZM515.262 220.5H513.666L508.864 213.234V220.5H507.268V210.756H508.864L513.666 218.008V210.756H515.262V220.5ZM524.4 213.57C524.148 213.085 523.798 212.721 523.35 212.478C522.902 212.226 522.384 212.1 521.796 212.1C521.152 212.1 520.578 212.245 520.074 212.534C519.57 212.823 519.173 213.234 518.884 213.766C518.604 214.298 518.464 214.914 518.464 215.614C518.464 216.314 518.604 216.935 518.884 217.476C519.173 218.008 519.57 218.419 520.074 218.708C520.578 218.997 521.152 219.142 521.796 219.142C522.664 219.142 523.368 218.899 523.91 218.414C524.451 217.929 524.782 217.271 524.904 216.44H521.25V215.166H526.612V216.412C526.509 217.168 526.238 217.863 525.8 218.498C525.37 219.133 524.806 219.641 524.106 220.024C523.415 220.397 522.645 220.584 521.796 220.584C520.881 220.584 520.046 220.374 519.29 219.954C518.534 219.525 517.932 218.932 517.484 218.176C517.045 217.42 516.826 216.566 516.826 215.614C516.826 214.662 517.045 213.808 517.484 213.052C517.932 212.296 518.534 211.708 519.29 211.288C520.055 210.859 520.89 210.644 521.796 210.644C522.832 210.644 523.751 210.901 524.554 211.414C525.366 211.918 525.954 212.637 526.318 213.57H524.4ZM535.168 220.626C534.44 220.626 533.782 220.463 533.194 220.136C532.606 219.8 532.144 219.333 531.808 218.736C531.472 218.129 531.304 217.429 531.304 216.636C531.304 215.852 531.477 215.157 531.822 214.55C532.168 213.943 532.639 213.477 533.236 213.15C533.834 212.823 534.501 212.66 535.238 212.66C535.976 212.66 536.643 212.823 537.24 213.15C537.838 213.477 538.309 213.943 538.654 214.55C539 215.157 539.172 215.852 539.172 216.636C539.172 217.42 538.995 218.115 538.64 218.722C538.286 219.329 537.8 219.8 537.184 220.136C536.578 220.463 535.906 220.626 535.168 220.626ZM535.168 219.24C535.579 219.24 535.962 219.142 536.316 218.946C536.68 218.75 536.974 218.456 537.198 218.064C537.422 217.672 537.534 217.196 537.534 216.636C537.534 216.076 537.427 215.605 537.212 215.222C536.998 214.83 536.713 214.536 536.358 214.34C536.004 214.144 535.621 214.046 535.21 214.046C534.8 214.046 534.417 214.144 534.062 214.34C533.717 214.536 533.442 214.83 533.236 215.222C533.031 215.605 532.928 216.076 532.928 216.636C532.928 217.467 533.138 218.111 533.558 218.568C533.988 219.016 534.524 219.24 535.168 219.24ZM542.346 213.906C542.58 213.514 542.888 213.211 543.27 212.996C543.662 212.772 544.124 212.66 544.656 212.66V214.312H544.25C543.625 214.312 543.149 214.471 542.822 214.788C542.505 215.105 542.346 215.656 542.346 216.44V220.5H540.75V212.786H542.346V213.906ZM555.066 210.77V217.784C555.066 218.652 554.8 219.338 554.268 219.842C553.745 220.346 553.055 220.598 552.196 220.598C551.337 220.598 550.642 220.346 550.11 219.842C549.587 219.338 549.326 218.652 549.326 217.784H550.936C550.945 218.213 551.053 218.554 551.258 218.806C551.473 219.058 551.785 219.184 552.196 219.184C552.607 219.184 552.919 219.058 553.134 218.806C553.349 218.545 553.456 218.204 553.456 217.784V210.77H555.066ZM564.466 213.668C564.466 214.163 564.35 214.629 564.116 215.068C563.883 215.507 563.51 215.866 562.996 216.146C562.483 216.417 561.825 216.552 561.022 216.552H559.258V220.5H557.662V210.77H561.022C561.769 210.77 562.399 210.901 562.912 211.162C563.435 211.414 563.822 211.759 564.074 212.198C564.336 212.637 564.466 213.127 564.466 213.668ZM561.022 215.25C561.629 215.25 562.082 215.115 562.38 214.844C562.679 214.564 562.828 214.172 562.828 213.668C562.828 212.604 562.226 212.072 561.022 212.072H559.258V215.25H561.022ZM567.584 212.058V214.914H570.944V216.216H567.584V219.198H571.364V220.5H565.988V210.756H571.364V212.058H567.584ZM580.372 213.57C580.12 213.085 579.77 212.721 579.322 212.478C578.874 212.226 578.356 212.1 577.768 212.1C577.124 212.1 576.55 212.245 576.046 212.534C575.542 212.823 575.146 213.234 574.856 213.766C574.576 214.298 574.436 214.914 574.436 215.614C574.436 216.314 574.576 216.935 574.856 217.476C575.146 218.008 575.542 218.419 576.046 218.708C576.55 218.997 577.124 219.142 577.768 219.142C578.636 219.142 579.341 218.899 579.882 218.414C580.424 217.929 580.755 217.271 580.876 216.44H577.222V215.166H582.584V216.412C582.482 217.168 582.211 217.863 581.772 218.498C581.343 219.133 580.778 219.641 580.078 220.024C579.388 220.397 578.618 220.584 577.768 220.584C576.854 220.584 576.018 220.374 575.262 219.954C574.506 219.525 573.904 218.932 573.456 218.176C573.018 217.42 572.798 216.566 572.798 215.614C572.798 214.662 573.018 213.808 573.456 213.052C573.904 212.296 574.506 211.708 575.262 211.288C576.028 210.859 576.863 210.644 577.768 210.644C578.804 210.644 579.724 210.901 580.526 211.414C581.338 211.918 581.926 212.637 582.29 213.57H580.372Z" fill="#535353"/>
</svg>
